<svg width="26" height="24" viewBox="0 0 26 24" fill="none" xmlns="http://www.w3.org/2000/svg">
<path d="M19.5625 2.625H6.4375C6.18886 2.625 5.9504 2.52623 5.77459 2.35041C5.59877 2.1746 5.5 1.93614 5.5 1.6875C5.5 1.43886 5.59877 1.2004 5.77459 1.02459C5.9504 0.848772 6.18886 0.75 6.4375 0.75H19.5625C19.8111 0.75 20.0496 0.848772 20.2254 1.02459C20.4012 1.2004 20.5 1.43886 20.5 1.6875C20.5 1.93614 20.4012 2.1746 20.2254 2.35041C20.0496 2.52623 19.8111 2.625 19.5625 2.625ZM21.4375 5.4375H4.5625C4.31386 5.4375 4.0754 5.33873 3.89959 5.16291C3.72377 4.9871 3.625 4.74864 3.625 4.5C3.625 4.25136 3.72377 4.0129 3.89959 3.83709C4.0754 3.66127 4.31386 3.5625 4.5625 3.5625H21.4375C21.6861 3.5625 21.9246 3.66127 22.1004 3.83709C22.2762 4.0129 22.375 4.25136 22.375 4.5C22.375 4.74864 22.2762 4.9871 22.1004 5.16291C21.9246 5.33873 21.6861 5.4375 21.4375 5.4375ZM22.5584 23.25H3.4416C2.74456 23.2492 2.07629 22.972 1.5834 22.4791C1.09052 21.9862 0.813275 21.3179 0.8125 20.6209V9.0041C0.813275 8.30706 1.09052 7.63879 1.5834 7.1459C2.07629 6.65302 2.74456 6.37578 3.4416 6.375H22.5584C23.2554 6.37578 23.9237 6.65302 24.4166 7.1459C24.9095 7.63879 25.1867 8.30706 25.1875 9.0041V20.6209C25.1867 21.3179 24.9095 21.9862 24.4166 22.4791C23.9237 22.972 23.2554 23.2492 22.5584 23.25Z" fill="#D7D7D7"/>
</svg>
