<svg width="38" height="46" viewBox="0 0 38 46" fill="none" xmlns="http://www.w3.org/2000/svg">
<path d="M31.3477 44.6328C32.4609 45.5586 34.0195 45.7695 35.3438 45.1484C36.668 44.5273 37.5 43.2031 37.5 41.75V4.25001C37.5 2.79688 36.6562 1.47266 35.3438 0.851568C34.0312 0.230474 32.4727 0.429693 31.3477 1.36719L8.84766 20.1172L7.5 21.2422V4.25001C7.5 2.17579 5.82422 0.500005 3.75 0.500005C1.67578 0.500005 0 2.17579 0 4.25001V41.75C0 43.8242 1.67578 45.5 3.75 45.5C5.82422 45.5 7.5 43.8242 7.5 41.75V24.7578L8.84766 25.8828L31.3477 44.6328Z" fill="white"/>
</svg>
