<svg width="106" height="246" viewBox="0 0 106 246" fill="none" xmlns="http://www.w3.org/2000/svg">
<path d="M93.5538 229.782C89.5672 231.686 87.8793 236.462 89.784 240.449C91.6886 244.435 96.4644 246.123 100.451 244.219C104.438 242.314 106.126 237.538 104.221 233.551C102.316 229.565 97.5405 227.877 93.5538 229.782ZM97.0018 2.00005L98.5018 2.00004L98.5018 0.500047L97.0018 0.500046L97.0018 2.00005ZM2.20332e-06 3.5L97.0018 3.50005L97.0018 0.500046L3.56439e-06 0.500002L2.20332e-06 3.5ZM95.5018 2.00005L95.5025 237L98.5025 237L98.5018 2.00004L95.5018 2.00005Z" fill="#7BE849"/>
</svg>
