<svg width="50" height="31" viewBox="0 0 50 31" fill="none" xmlns="http://www.w3.org/2000/svg">
<path fill-rule="evenodd" clip-rule="evenodd" d="M16.9607 0C13.4881 0 10.3995 1.6566 8.44557 4.22439C8.01886 4.14418 7.57824 4.10354 7.12906 4.10354C3.19236 4.10354 0 7.29696 0 11.2326C0 15.1682 3.19236 18.3649 7.12906 18.3649C7.85095 18.3649 8.54717 18.2568 9.20383 18.0569C11.1535 20.1081 13.9105 21.3893 16.9607 21.3893C18.6686 21.3893 20.2814 20.9883 21.7134 20.276C23.1454 20.9883 24.7592 21.3893 26.4661 21.3893C29.9814 21.3893 33.1021 19.6889 35.0517 17.0676C38.2495 17.0409 40.8333 14.4356 40.8333 11.2326C40.8333 8.2798 38.6377 5.83928 35.7908 5.45428C33.9566 2.19882 30.4669 0 26.4661 0C24.7581 0 23.1454 0.399976 21.7134 1.11224C20.2814 0.399976 18.6686 0 16.9607 0Z" fill="url(#paint0_linear_510_441)"/>
<path fill-rule="evenodd" clip-rule="evenodd" d="M16.745 0.845116C13.6982 0.845116 10.9498 2.32474 9.24643 4.56318C9.24594 4.56381 9.24545 4.56443 9.24497 4.56506C8.94882 4.95479 8.4758 5.13729 7.99461 5.04757C7.646 4.98251 7.28419 4.94919 6.91261 4.94919C3.80278 4.94919 1.06146 7.69051 1.06146 10.8003C1.06146 11.2098 1.09208 11.3488 1.08131 11.1774C1.12623 11.8915 1.40617 12.5706 1.87748 13.109C2.34879 13.6473 2.98499 14.0146 3.68688 14.1535C7.11675 14.8319 11.7656 14.5252 17.2917 13.1538C21.7509 12.0471 26.5523 10.3553 31.3173 8.44877C31.8426 8.23851 32.3036 7.89443 32.6547 7.45073C33.0057 7.00704 33.2345 6.47918 33.3183 5.91965C33.4021 5.36012 33.338 4.7884 33.1323 4.26134C32.9266 3.73427 32.5866 3.27022 32.146 2.91533C30.5449 1.62614 28.4706 0.845116 26.2499 0.845116C24.7578 0.845116 23.318 1.19989 22.066 1.82267C21.7055 2.00203 21.2895 2.00203 20.9289 1.82267C19.6769 1.19989 18.2371 0.845116 16.745 0.845116Z" fill="url(#paint1_linear_510_441)"/>
<path fill-rule="evenodd" clip-rule="evenodd" d="M26.1273 9.16626C22.6548 9.16626 19.5662 10.8229 17.6123 13.3906C17.1855 13.3104 16.7449 13.2698 16.2957 13.2698C12.359 13.2698 9.16669 16.4632 9.16669 20.3989C9.16669 24.3345 12.359 27.5311 16.2957 27.5311C17.0176 27.5311 17.7139 27.4231 18.3705 27.2231C20.3202 29.2744 23.0772 30.5556 26.1273 30.5556C27.8353 30.5556 29.448 30.1545 30.8801 29.4423C32.3121 30.1545 33.9259 30.5556 35.6328 30.5556C39.1481 30.5556 42.2688 28.8551 44.2184 26.2339C47.4161 26.2071 50 23.6019 50 20.3989C50 17.4461 47.8044 15.0055 44.9574 14.6205C43.1233 11.3651 39.6336 9.16626 35.6328 9.16626C33.9248 9.16626 32.3121 9.56624 30.8801 10.2785C29.448 9.56624 27.8353 9.16626 26.1273 9.16626Z" fill="url(#paint2_linear_510_441)"/>
<path fill-rule="evenodd" clip-rule="evenodd" d="M25.9118 10.0114C22.865 10.0114 20.1166 11.491 18.4132 13.7294C18.4127 13.7301 18.4122 13.7307 18.4117 13.7313C18.1156 14.121 17.6425 14.3036 17.1614 14.2138C16.8127 14.1488 16.4509 14.1155 16.0794 14.1155C12.9695 14.1155 10.2282 16.8568 10.2282 19.9666C10.2282 20.3761 10.2588 20.5151 10.2481 20.3436C10.293 21.0577 10.5729 21.7369 11.0442 22.2752C11.5155 22.8136 12.1517 23.1808 12.8536 23.3197C16.2835 23.9982 20.9323 23.6915 26.4584 22.32C30.9176 21.2134 35.7191 19.5216 40.4841 17.615C41.0093 17.4048 41.4704 17.0607 41.8214 16.617C42.1725 16.1733 42.4013 15.6454 42.485 15.0859C42.5688 14.5264 42.5047 13.9547 42.299 13.4276C42.0934 12.9005 41.7533 12.4365 41.3127 12.0816C39.7116 10.7924 37.6373 10.0114 35.4166 10.0114C33.9246 10.0114 32.4848 10.3661 31.2328 10.9889C30.8722 11.1683 30.4562 11.1683 30.0956 10.9889C28.8436 10.3661 27.4038 10.0114 25.9118 10.0114Z" fill="url(#paint3_linear_510_441)"/>
<defs>
<linearGradient id="paint0_linear_510_441" x1="19.6606" y1="3.23866" x2="20.4167" y2="17.715" gradientUnits="userSpaceOnUse">
<stop stop-color="#96BEFF"/>
<stop offset="1" stop-color="#09719F"/>
</linearGradient>
<linearGradient id="paint1_linear_510_441" x1="14.2592" y1="-1.94622" x2="17.2056" y2="13.1782" gradientUnits="userSpaceOnUse">
<stop stop-color="white"/>
<stop offset="1" stop-color="white" stop-opacity="0"/>
</linearGradient>
<linearGradient id="paint2_linear_510_441" x1="28.8273" y1="12.4049" x2="29.5834" y2="26.8812" gradientUnits="userSpaceOnUse">
<stop stop-color="#96BEFF"/>
<stop offset="1" stop-color="#09719F"/>
</linearGradient>
<linearGradient id="paint3_linear_510_441" x1="23.4259" y1="7.22004" x2="26.3723" y2="22.3444" gradientUnits="userSpaceOnUse">
<stop stop-color="white"/>
<stop offset="1" stop-color="white" stop-opacity="0"/>
</linearGradient>
</defs>
</svg>
