<svg width="40" height="35" viewBox="0 0 40 35" fill="none" xmlns="http://www.w3.org/2000/svg">
<path d="M33.8432 12.4982C32.3899 12.5325 30.9805 12.0551 29.9235 11.1704C28.8665 10.2858 28.248 9.06591 28.2033 7.77794C28.2296 6.85836 28.5488 5.96413 29.124 5.19849L32.6729 0.518225C32.8093 0.357304 32.986 0.226709 33.1891 0.136766C33.3922 0.046823 33.6161 0 33.8432 0C34.0702 0 34.2942 0.046823 34.4973 0.136766C34.7004 0.226709 34.8771 0.357304 35.0134 0.518225L38.5172 5.13725C39.1161 5.91809 39.4511 6.83419 39.483 7.77794C39.4384 9.06591 38.8199 10.2858 37.7629 11.1704C36.7058 12.0551 35.2964 12.5325 33.8432 12.4982ZM33.8432 3.45386L31.5083 6.53196C31.2165 6.89808 31.0483 7.33023 31.0233 7.77794C31.1051 8.3899 31.4374 8.95398 31.9571 9.36328C32.4769 9.77258 33.1479 9.99865 33.8432 9.99865C34.5384 9.99865 35.2095 9.77258 35.7293 9.36328C36.249 8.95398 36.5813 8.3899 36.6631 7.77794C36.6315 7.30597 36.448 6.8519 36.1344 6.46947L33.8432 3.45386ZM30.3183 34.9935H9.1689C6.89753 34.9956 4.70628 34.2496 3.02055 32.9003C1.33481 31.551 0.274859 29.6946 0.0464488 27.6916C-0.181961 25.6885 0.437471 23.6817 1.7845 22.0607C3.13152 20.4396 5.11003 19.3201 7.33595 18.9193C7.93675 16.3971 9.49741 14.1346 11.7564 12.5109C14.0153 10.8873 16.8353 10.0012 19.7436 10.0012C22.6519 10.0012 25.4719 10.8873 27.7308 12.5109C29.9898 14.1346 31.5504 16.3971 32.1512 18.9193C34.3771 19.3201 36.3557 20.4396 37.7027 22.0607C39.0497 23.6817 39.6691 25.6885 39.4407 27.6916C39.2123 29.6946 38.1524 31.551 36.4666 32.9003C34.7809 34.2496 32.5897 34.9956 30.3183 34.9935ZM19.7436 12.4982C17.3364 12.5002 15.0129 13.2819 13.2105 14.6963C11.4082 16.1107 10.2511 18.0601 9.95706 20.1778L9.81607 21.1926L8.66695 21.2726C7.03034 21.3831 5.50586 22.0519 4.41425 23.1383C3.32264 24.2247 2.749 25.6441 2.81403 27.0978C2.87905 28.5515 3.57767 29.9262 4.7629 30.9326C5.94812 31.939 7.52756 32.4987 9.1689 32.494H30.3183C31.9596 32.4987 33.5391 31.939 34.7243 30.9326C35.9095 29.9262 36.6081 28.5515 36.6732 27.0978C36.7382 25.6441 36.1645 24.2247 35.0729 23.1383C33.9813 22.0519 32.4568 21.3831 30.8202 21.2726L29.6711 21.1926L29.5315 20.1778C29.2369 18.0601 28.0794 16.1108 26.2769 14.6965C24.4743 13.2822 22.1509 12.5004 19.7436 12.4982Z" fill="#F8F8F8"/>
</svg>
