<svg width="26" height="26" viewBox="0 0 26 26" fill="none" xmlns="http://www.w3.org/2000/svg">
<path d="M13 25.5C11.2708 25.5 9.64583 25.1717 8.125 24.515C6.60417 23.8583 5.28125 22.9679 4.15625 21.8438C3.03125 20.7188 2.14083 19.3958 1.485 17.875C0.829167 16.3542 0.500833 14.7292 0.5 13C0.5 11.2708 0.828333 9.64583 1.485 8.125C2.14167 6.60417 3.03208 5.28125 4.15625 4.15625C5.28125 3.03125 6.60417 2.14083 8.125 1.485C9.64583 0.829167 11.2708 0.500833 13 0.5C14.7292 0.5 16.3542 0.828333 17.875 1.485C19.3958 2.14167 20.7188 3.03208 21.8438 4.15625C22.9688 5.28125 23.8596 6.60417 24.5162 8.125C25.1729 9.64583 25.5008 11.2708 25.5 13C25.5 14.7292 25.1717 16.3542 24.515 17.875C23.8583 19.3958 22.9679 20.7188 21.8438 21.8438C20.7188 22.9688 19.3958 23.8596 17.875 24.5162C16.3542 25.1729 14.7292 25.5008 13 25.5ZM13 23C14.1667 23 15.2658 22.8175 16.2975 22.4525C17.3292 22.0875 18.2717 21.5721 19.125 20.9063L17.3438 19.125C16.7396 19.5625 16.0679 19.9012 15.3287 20.1412C14.5896 20.3812 13.8133 20.5008 13 20.5C10.9167 20.5 9.14583 19.7708 7.6875 18.3125C6.22917 16.8542 5.5 15.0833 5.5 13C5.5 10.9167 6.22917 9.14583 7.6875 7.6875C9.14583 6.22917 10.9167 5.5 13 5.5C15.0833 5.5 16.8542 6.22917 18.3125 7.6875C19.7708 9.14583 20.5 10.9167 20.5 13C20.5 13.8125 20.375 14.5937 20.125 15.3438C19.875 16.0938 19.5312 16.7708 19.0938 17.375L20.875 19.1562C21.5417 18.3021 22.0625 17.3542 22.4375 16.3125C22.8125 15.2708 23 14.1667 23 13C23 10.2083 22.0312 7.84375 20.0937 5.90625C18.1562 3.96875 15.7917 3 13 3C10.2083 3 7.84375 3.96875 5.90625 5.90625C3.96875 7.84375 3 10.2083 3 13C3 15.7917 3.96875 18.1562 5.90625 20.0937C7.84375 22.0312 10.2083 23 13 23ZM13 18C13.4583 18 13.9012 17.9425 14.3287 17.8275C14.7562 17.7125 15.1571 17.5408 15.5312 17.3125L13.625 15.4063C13.5208 15.4479 13.4167 15.4742 13.3125 15.485C13.2083 15.4958 13.1042 15.5008 13 15.5C12.3125 15.5 11.7237 15.255 11.2337 14.765C10.7437 14.275 10.4992 13.6867 10.5 13C10.5 12.3125 10.745 11.7237 11.235 11.2337C11.725 10.7437 12.3133 10.4992 13 10.5C13.6875 10.5 14.2763 10.745 14.7663 11.235C15.2563 11.725 15.5008 12.3133 15.5 13C15.5 13.125 15.4946 13.245 15.4838 13.36C15.4729 13.475 15.4471 13.5842 15.4063 13.6875L17.2813 15.5625C17.5104 15.1875 17.6875 14.7862 17.8125 14.3587C17.9375 13.9312 18 13.4783 18 13C18 11.625 17.5104 10.4479 16.5312 9.46875C15.5521 8.48958 14.375 8 13 8C11.625 8 10.4479 8.48958 9.46875 9.46875C8.48958 10.4479 8 11.625 8 13C8 14.375 8.48958 15.5521 9.46875 16.5312C10.4479 17.5104 11.625 18 13 18Z" fill="#D7D7D7"/>
</svg>
