<svg width="71" height="89" viewBox="0 0 71 89" fill="none" xmlns="http://www.w3.org/2000/svg">
<path fill-rule="evenodd" clip-rule="evenodd" d="M45.8064 1.14103C45.8064 0.838407 45.6858 0.548183 45.471 0.334199C45.2563 0.120215 44.965 0 44.6613 0H12.5968C9.2559 0 6.05186 1.32236 3.68951 3.67619C1.32716 6.03001 0 9.22248 0 12.5513V76.4487C0 79.7775 1.32716 82.97 3.68951 85.3238C6.05186 87.6776 9.2559 89 12.5968 89H58.4032C61.7441 89 64.9481 87.6776 67.3105 85.3238C69.6728 82.97 71 79.7775 71 76.4487V31.4786C71 31.176 70.8793 30.8858 70.6646 30.6718C70.4498 30.4578 70.1586 30.3376 69.8548 30.3376H49.2419C48.3308 30.3376 47.457 29.9769 46.8127 29.335C46.1684 28.693 45.8064 27.8224 45.8064 26.9145V1.14103ZM49.2419 45.641C50.1531 45.641 51.0269 46.0017 51.6712 46.6436C52.3155 47.2856 52.6774 48.1562 52.6774 49.0641C52.6774 49.972 52.3155 50.8426 51.6712 51.4846C51.0269 52.1265 50.1531 52.4872 49.2419 52.4872H21.7581C20.8469 52.4872 19.9731 52.1265 19.3288 51.4846C18.6845 50.8426 18.3226 49.972 18.3226 49.0641C18.3226 48.1562 18.6845 47.2856 19.3288 46.6436C19.9731 46.0017 20.8469 45.641 21.7581 45.641H49.2419ZM49.2419 63.8974C50.1531 63.8974 51.0269 64.2581 51.6712 64.9C52.3155 65.542 52.6774 66.4127 52.6774 67.3205C52.6774 68.2284 52.3155 69.099 51.6712 69.741C51.0269 70.3829 50.1531 70.7436 49.2419 70.7436H21.7581C20.8469 70.7436 19.9731 70.3829 19.3288 69.741C18.6845 69.099 18.3226 68.2284 18.3226 67.3205C18.3226 66.4127 18.6845 65.542 19.3288 64.9C19.9731 64.2581 20.8469 63.8974 21.7581 63.8974H49.2419Z" fill="black"/>
</svg>
