<svg width="38" height="46" viewBox="0 0 38 46" fill="none" xmlns="http://www.w3.org/2000/svg">
<path d="M6.65234 1.36718C5.53906 0.441401 3.98047 0.230464 2.65625 0.851558C1.33203 1.47265 0.5 2.79687 0.5 4.25L0.5 41.75C0.5 43.2031 1.34375 44.5273 2.65625 45.1484C3.96875 45.7695 5.52734 45.5703 6.65234 44.6328L29.1523 25.8828L30.5 24.7578L30.5 41.75C30.5 43.8242 32.1758 45.5 34.25 45.5C36.3242 45.5 38 43.8242 38 41.75L38 4.25C38 2.17578 36.3242 0.499995 34.25 0.499995C32.1758 0.499995 30.5 2.17578 30.5 4.25L30.5 21.2422L29.1523 20.1172L6.65234 1.36718Z" fill="white"/>
</svg>
