<svg width="152" height="258" viewBox="0 0 152 258" fill="none" xmlns="http://www.w3.org/2000/svg">
<g filter="url(#filter0_d_505_89)">
<path d="M135.442 34.0909C132.057 34.0909 129.217 33 126.922 30.8182C124.628 28.6364 123.485 25.9394 123.493 22.7273V11.3637C123.493 8.14398 124.64 5.44322 126.934 3.2614C129.229 1.07958 132.065 -0.00753643 135.442 3.93205e-05C138.828 3.93205e-05 141.668 1.09095 143.962 3.27277C146.256 5.45458 147.4 8.15155 147.392 11.3637V22.7273C147.392 25.947 146.244 28.6478 143.95 30.8296C141.656 33.0114 138.82 34.0985 135.442 34.0909ZM135.442 250C132.057 250 129.217 248.909 126.922 246.727C124.628 244.545 123.485 241.848 123.493 238.636V227.273C123.493 224.053 124.64 221.352 126.934 219.17C129.229 216.989 132.065 215.901 135.442 215.909C138.828 215.909 141.668 217 143.962 219.182C146.256 221.364 147.4 224.061 147.392 227.273V238.636C147.392 241.856 146.244 244.557 143.95 246.739C141.656 248.92 138.82 250.008 135.442 250ZM15.9493 136.364C12.5637 136.364 9.72375 135.273 7.42949 133.091C5.13522 130.909 3.99208 128.212 4.00004 125C4.00004 121.78 5.14717 119.08 7.44144 116.898C9.7357 114.716 12.5717 113.629 15.9493 113.636H27.8986C31.2843 113.636 34.1242 114.727 36.4185 116.909C38.7128 119.091 39.8559 121.788 39.8479 125C39.8479 128.22 38.7008 130.92 36.4065 133.102C34.1123 135.284 31.2763 136.371 27.8986 136.364H15.9493ZM42.5365 213.352C40.1467 211.079 38.9517 208.333 38.9517 205.114C38.9517 201.894 40.1467 199.148 42.5365 196.875L47.0175 192.898C49.4074 190.814 52.1955 189.773 55.382 189.773C58.5685 189.773 61.3567 190.909 63.7465 193.182C65.9372 195.265 67.0844 197.917 67.1879 201.136C67.2915 204.356 66.1444 207.008 63.7465 209.091L59.5643 213.352C57.3736 215.625 54.5854 216.761 51.1998 216.761C47.8141 216.761 44.9264 215.625 42.5365 213.352ZM47.0175 56.8182L42.5365 52.8409C40.1467 50.7576 38.9517 48.1061 38.9517 44.8864C38.9517 41.6667 40.1467 38.9205 42.5365 36.6478C44.9264 34.375 47.8141 33.2387 51.1998 33.2387C54.5854 33.2387 57.4732 34.375 59.863 36.6478L64.0453 40.9091C66.236 43.1818 67.3313 45.8334 67.3313 48.8637C67.3313 51.894 66.1364 54.5455 63.7465 56.8182C61.5558 58.9015 58.8194 59.9432 55.5374 59.9432C52.2553 59.9432 49.4153 58.9015 47.0175 56.8182Z" fill="#FFC700"/>
</g>
<path d="M150.227 47.1698C138.87 47.1698 127.625 49.1829 117.133 53.0943C106.641 57.0056 97.1076 62.7385 89.0774 69.9658C81.0471 77.193 74.6772 85.7729 70.3313 95.2157C65.9854 104.658 63.7485 114.779 63.7485 125C63.7485 135.221 65.9854 145.342 70.3313 154.784C74.6772 164.227 81.0471 172.807 89.0774 180.034C97.1076 187.261 106.641 192.994 117.133 196.906C127.625 200.817 138.87 202.83 150.227 202.83L150.227 125V47.1698Z" fill="#FFC700"/>
<defs>
<filter id="filter0_d_505_89" x="0" y="0" width="151.392" height="258" filterUnits="userSpaceOnUse" color-interpolation-filters="sRGB">
<feFlood flood-opacity="0" result="BackgroundImageFix"/>
<feColorMatrix in="SourceAlpha" type="matrix" values="0 0 0 0 0 0 0 0 0 0 0 0 0 0 0 0 0 0 127 0" result="hardAlpha"/>
<feOffset dy="4"/>
<feGaussianBlur stdDeviation="2"/>
<feComposite in2="hardAlpha" operator="out"/>
<feColorMatrix type="matrix" values="0 0 0 0 0 0 0 0 0 0 0 0 0 0 0 0 0 0 0.25 0"/>
<feBlend mode="normal" in2="BackgroundImageFix" result="effect1_dropShadow_505_89"/>
<feBlend mode="normal" in="SourceGraphic" in2="effect1_dropShadow_505_89" result="shape"/>
</filter>
</defs>
</svg>
