<svg width="40" height="40" viewBox="0 0 40 40" fill="none" xmlns="http://www.w3.org/2000/svg">
<g clip-path="url(#clip0_821_647)">
<path d="M27.6863 6.59322C23.108 4.55822 17.603 7.05655 17.053 12.3815C16.7938 14.9127 16.6647 17.4555 16.6663 19.9999C16.6663 22.8832 16.828 25.4482 17.0513 27.6165C17.6013 32.9432 23.108 35.4415 27.6863 33.4065L28.0613 33.2399C30.6225 32.1014 32.7985 30.2447 34.3257 27.8945C35.8529 25.5444 36.6657 22.8018 36.6657 19.999C36.6657 17.1963 35.8529 14.4537 34.3257 12.1036C32.7985 9.75343 30.6225 7.89665 28.0613 6.75822L27.6863 6.59155V6.59322ZM4.99967 9.99988C4.55765 9.99988 4.13372 10.1755 3.82116 10.488C3.5086 10.8006 3.33301 11.2245 3.33301 11.6665C3.33301 12.1086 3.5086 12.5325 3.82116 12.8451C4.13372 13.1576 4.55765 13.3332 4.99967 13.3332H13.333C13.775 13.3332 14.199 13.1576 14.5115 12.8451C14.8241 12.5325 14.9997 12.1086 14.9997 11.6665C14.9997 11.2245 14.8241 10.8006 14.5115 10.488C14.199 10.1755 13.775 9.99988 13.333 9.99988H4.99967ZM4.99967 18.3332C4.55765 18.3332 4.13372 18.5088 3.82116 18.8214C3.5086 19.1339 3.33301 19.5579 3.33301 19.9999C3.33301 20.4419 3.5086 20.8658 3.82116 21.1784C4.13372 21.491 4.55765 21.6665 4.99967 21.6665H13.333C13.775 21.6665 14.199 21.491 14.5115 21.1784C14.8241 20.8658 14.9997 20.4419 14.9997 19.9999C14.9997 19.5579 14.8241 19.1339 14.5115 18.8214C14.199 18.5088 13.775 18.3332 13.333 18.3332H4.99967ZM3.33301 28.3332C3.33301 27.8912 3.5086 27.4673 3.82116 27.1547C4.13372 26.8421 4.55765 26.6665 4.99967 26.6665H13.333C13.775 26.6665 14.199 26.8421 14.5115 27.1547C14.8241 27.4673 14.9997 27.8912 14.9997 28.3332C14.9997 28.7752 14.8241 29.1992 14.5115 29.5117C14.199 29.8243 13.775 29.9999 13.333 29.9999H4.99967C4.55765 29.9999 4.13372 29.8243 3.82116 29.5117C3.5086 29.1992 3.33301 28.7752 3.33301 28.3332Z" fill="black"/>
</g>
<defs>
<clipPath id="clip0_821_647">
<rect width="40" height="40" fill="white"/>
</clipPath>
</defs>
</svg>
