<svg width="25" height="30" viewBox="0 0 25 30" fill="none" xmlns="http://www.w3.org/2000/svg">
<path d="M12.5 0C15.8152 0 18.9946 1.31696 21.3388 3.66117C23.683 6.00537 25 9.18479 25 12.5C25 17.675 21.0556 23.0972 13.3333 28.8889C13.0929 29.0692 12.8005 29.1667 12.5 29.1667C12.1995 29.1667 11.9071 29.0692 11.6667 28.8889C3.94444 23.0972 0 17.675 0 12.5C0 9.18479 1.31696 6.00537 3.66116 3.66117C6.00537 1.31696 9.18479 0 12.5 0ZM12.5 2.77778C9.92151 2.77778 7.44862 3.80208 5.62535 5.62535C3.80208 7.44862 2.77778 9.92151 2.77778 12.5C2.77778 16.2639 5.71944 20.6056 11.7333 25.425L12.5 26.0306L13.2667 25.425C19.2806 20.6056 22.2222 16.2639 22.2222 12.5C22.2222 9.92151 21.1979 7.44862 19.3746 5.62535C17.5514 3.80208 15.0785 2.77778 12.5 2.77778ZM12.5 9.72222C13.2367 9.72222 13.9432 10.0149 14.4642 10.5358C14.9851 11.0567 15.2778 11.7633 15.2778 12.5C15.2778 13.2367 14.9851 13.9433 14.4642 14.4642C13.9432 14.9851 13.2367 15.2778 12.5 15.2778C11.7633 15.2778 11.0567 14.9851 10.5358 14.4642C10.0149 13.9433 9.72222 13.2367 9.72222 12.5C9.72222 11.7633 10.0149 11.0567 10.5358 10.5358C11.0567 10.0149 11.7633 9.72222 12.5 9.72222Z" fill="#F8F8F8"/>
</svg>
