<svg width="40" height="35" viewBox="0 0 40 35" fill="none" xmlns="http://www.w3.org/2000/svg">
<path d="M0.692307 16.3C0.692307 18.1667 1.31282 19.8167 2.53504 21.2833C3.75726 22.7333 5.35555 23.7333 7.32991 24.2667C7.49914 24.3 7.64957 24.25 7.7812 24.1333L9.96239 21.75C8.28889 21.75 6.85983 21.2167 5.67521 20.15C4.4906 19.0833 3.88889 17.8 3.88889 16.3C3.88889 14.9 4.41538 13.6667 5.46838 12.6333C6.52137 11.6 7.83761 11.0167 9.41709 10.9L10.4137 10.7833C10.6205 10.7833 10.7145 10.7167 10.7145 10.5667L10.865 9.65C11.0906 7.81667 11.9744 6.3 13.4786 5.1C14.9829 3.9 16.7692 3.3 18.8376 3.3C20.906 3.3 22.7111 3.9 24.2342 5.11667C25.7761 6.33333 26.6222 7.85 26.8103 9.65L26.9419 10.6167C26.9795 10.8 27.1299 10.9 27.3556 10.9H30.4017C32.094 10.9 33.5419 11.4333 34.7265 12.4833C35.9111 13.5333 36.5128 14.8 36.5128 16.3C36.5128 17.6833 35.9863 18.9 34.9333 19.9333C33.8803 20.9667 32.5829 21.5667 31.041 21.7333C30.8154 21.7333 30.5145 21.7667 30.1197 21.8333C29.7624 21.8667 29.4991 21.9833 29.3487 22.2167L24.9111 26.8667C24.7787 27.0122 24.6833 27.1814 24.6314 27.3626C24.5795 27.5438 24.5723 27.7328 24.6103 27.9167C24.6667 28.3167 24.8735 28.6333 25.1932 28.8667C25.4 29.0667 25.7385 29.1833 26.2462 29.1833C26.735 29.1833 27.1299 28.9833 27.3932 28.6L31.3795 24.5333C33.7111 24.3167 35.6855 23.4333 37.3026 21.85C38.9197 20.2667 39.7094 18.4167 39.7094 16.3C39.7094 15.1833 39.465 14.1 38.9761 13.0833C38.5152 12.1011 37.8449 11.207 37.0017 10.45C36.1477 9.70267 35.1389 9.10847 34.0308 8.7C32.8838 8.26612 31.6488 8.04492 30.4017 8.05H29.8C29.1795 5.85 27.8444 4.03333 25.8137 2.61667C23.7829 1.2 21.4513 0.5 18.8188 0.5C17.0701 0.5 15.4154 0.833334 13.8735 1.5C12.3316 2.16667 11.0342 3.08333 9.96239 4.26667C8.8906 5.45 8.19487 6.8 7.83761 8.3C5.73162 8.71667 4.00171 9.66667 2.66667 11.1667C1.35043 12.65 0.692307 14.3667 0.692307 16.3ZM7.04786 29.6667C7.04786 29.7667 7.08547 29.9333 7.16068 30.1667C7.32991 30.5167 7.59316 30.7667 7.98803 30.9C8.40171 31.0667 8.81538 31.0833 9.24786 30.9333C9.44516 30.872 9.62487 30.7731 9.77432 30.6435C9.92377 30.5139 10.0393 30.3568 10.1128 30.1833C10.3009 29.8167 10.3197 29.4667 10.1504 29.1C10.076 28.9308 9.95959 28.7785 9.80989 28.6545C9.66018 28.5304 9.48097 28.4378 9.28547 28.3833C9.09928 28.2936 8.89255 28.2425 8.68084 28.2338C8.46913 28.2251 8.25797 28.2592 8.06325 28.3333C7.8676 28.4064 7.69035 28.5134 7.54184 28.6479C7.39333 28.7823 7.27654 28.9417 7.19829 29.1167C7.10007 29.287 7.04853 29.4754 7.04786 29.6667ZM10.5265 25.6V25.7667C10.5641 26.15 10.7521 26.45 11.0906 26.7C11.5231 26.9167 11.8991 27.0167 12.2564 27.0167C12.6701 27.0167 13.065 26.8333 13.4034 26.4667L17.7658 21.85C18.0291 21.5667 18.1607 21.2 18.1419 20.75C18.1031 20.4059 17.9142 20.0889 17.6154 19.8667C17.3145 19.6333 16.9949 19.5 16.6376 19.5C16.5248 19.5 16.4496 19.5 16.3744 19.5167C15.9419 19.5833 15.5846 19.7667 15.3214 20.0667L10.8838 24.6833C10.6393 24.95 10.5265 25.25 10.5265 25.6ZM11.9744 33.4667C11.9744 33.6667 12.0308 33.85 12.1248 34C12.2752 34.35 12.5573 34.6167 12.9521 34.7833C13.159 34.8667 13.3658 34.9 13.5726 34.9C13.7983 34.9 14.0051 34.8667 14.1556 34.7833C14.588 34.6333 14.8889 34.4 15.0393 34.1C15.2274 33.7333 15.2462 33.3667 15.0769 32.9833C15.0137 32.8056 14.9041 32.6436 14.7571 32.5104C14.6101 32.3772 14.4298 32.2766 14.2308 32.2167C14.0352 32.1331 13.8219 32.0869 13.6049 32.0812C13.3878 32.0754 13.1718 32.1102 12.9709 32.1833C12.5385 32.3333 12.2564 32.5833 12.1248 32.9333C12.012 33.0833 11.9744 33.2667 11.9744 33.4667ZM15.1145 29.55V29.7333C15.1521 30.1 15.359 30.4 15.6974 30.65C16.0359 30.9 16.3932 31.0167 16.7316 31.0167C17.1641 31.0167 17.5402 30.8333 17.9162 30.4667L26.0957 21.7333C26.3026 21.5333 26.4154 21.2333 26.4154 20.8667V20.6667C26.3778 20.2833 26.1897 20 25.9077 19.7833C25.6256 19.5667 25.2872 19.45 24.9299 19.45H24.6855C24.253 19.4667 23.8957 19.65 23.6513 19.9667L15.4718 28.6333C15.2085 28.9333 15.1145 29.2333 15.1145 29.55ZM21.7145 31.4667C21.7145 31.6167 21.7521 31.7833 21.8274 31.9667C21.9966 32.3333 22.2786 32.6 22.6923 32.75C22.9556 32.8167 23.1436 32.85 23.2752 32.85C23.5385 32.85 23.7641 32.8 23.9145 32.7167C24.3282 32.5667 24.6291 32.3333 24.7795 32.0167C24.9675 31.7333 24.9863 31.3667 24.8171 30.9C24.7451 30.7331 24.6341 30.5815 24.4916 30.4552C24.349 30.3288 24.178 30.2305 23.9897 30.1667L23.3128 30.0167C23.1436 30.05 22.9556 30.0833 22.7111 30.1333C22.2974 30.2667 22.0154 30.5167 21.865 30.8667C21.7709 31.0833 21.7145 31.2833 21.7145 31.4667Z" fill="#F8F8F8"/>
</svg>
