<svg width="25" height="25" viewBox="0 0 25 25" fill="none" xmlns="http://www.w3.org/2000/svg">
<g clip-path="url(#clip0_821_660)">
<path fill-rule="evenodd" clip-rule="evenodd" d="M16.7289 11.3958C17.0215 11.6888 17.1859 12.0859 17.1859 12.5C17.1859 12.9141 17.0215 13.3112 16.7289 13.6042L10.8372 19.4979C10.5441 19.7909 10.1466 19.9554 9.73219 19.9553C9.31775 19.9552 8.92033 19.7905 8.62735 19.4974C8.33436 19.2043 8.16982 18.8068 8.16992 18.3923C8.17002 17.9779 8.33475 17.5805 8.62787 17.2875L13.4154 12.5L8.62787 7.71249C8.3431 7.41793 8.18542 7.02332 8.18879 6.61363C8.19215 6.20394 8.3563 5.81197 8.64586 5.52213C8.93543 5.23229 9.32724 5.06778 9.73693 5.06403C10.1466 5.06028 10.5414 5.21759 10.8362 5.50207L16.73 11.3948L16.7289 11.3958Z" fill="black"/>
</g>
<defs>
<clipPath id="clip0_821_660">
<rect width="25" height="25" fill="white"/>
</clipPath>
</defs>
</svg>
