<svg width="15" height="26" viewBox="0 0 15 26" fill="none" xmlns="http://www.w3.org/2000/svg">
<path d="M0.924463 1.06753C0.572955 1.41914 0.375488 1.89597 0.375488 2.39315C0.375488 2.89034 0.572955 3.36716 0.924463 3.71878L10.2057 13L0.924463 22.2813C0.582917 22.6349 0.393927 23.1085 0.398199 23.6002C0.402471 24.0918 0.599663 24.5621 0.947303 24.9097C1.29494 25.2573 1.76522 25.4545 2.25684 25.4588C2.74845 25.4631 3.22208 25.2741 3.57571 24.9325L14.1826 14.3257C14.5341 13.974 14.7316 13.4972 14.7316 13C14.7316 12.5028 14.5341 12.026 14.1826 11.6744L3.57571 1.06753C3.2241 0.716021 2.74727 0.518555 2.25009 0.518555C1.7529 0.518555 1.27608 0.716021 0.924463 1.06753Z" fill="white"/>
</svg>
