<svg width="30" height="30" viewBox="0 0 30 30" fill="none" xmlns="http://www.w3.org/2000/svg">
<mask id="mask0_840_1775" style="mask-type:luminance" maskUnits="userSpaceOnUse" x="0" y="0" width="30" height="30">
<path d="M22.9288 9.48187C23.7258 10.6236 24.2651 11.9248 24.5094 13.2956H27.5V16.7044H24.5094C24.2651 18.0752 23.7258 19.3764 22.9288 20.5181L25.0444 22.6338L22.6338 25.0444L20.5181 22.9288C19.3764 23.7258 18.0752 24.2651 16.7044 24.5094V27.5H13.2956V24.5094C11.9248 24.2651 10.6236 23.7258 9.48187 22.9288L7.36625 25.0444L4.95562 22.6338L7.07125 20.5181C6.27421 19.3764 5.73488 18.0752 5.49062 16.7044H2.5V13.2956H5.49062C5.73488 11.9248 6.27421 10.6236 7.07125 9.48187L4.95562 7.36625L7.36625 4.95562L9.48187 7.07125C10.6236 6.27421 11.9248 5.73488 13.2956 5.49062V2.5H16.7044V5.49062C18.0752 5.73488 19.3764 6.27421 20.5181 7.07125L22.6338 4.95562L25.0444 7.36625L22.9288 9.48187Z" fill="white" stroke="white" stroke-width="4" stroke-linejoin="round"/>
<path d="M15 18.125C15.8288 18.125 16.6237 17.7958 17.2097 17.2097C17.7958 16.6237 18.125 15.8288 18.125 15C18.125 14.1712 17.7958 13.3763 17.2097 12.7903C16.6237 12.2042 15.8288 11.875 15 11.875C14.1712 11.875 13.3763 12.2042 12.7903 12.7903C12.2042 13.3763 11.875 14.1712 11.875 15C11.875 15.8288 12.2042 16.6237 12.7903 17.2097C13.3763 17.7958 14.1712 18.125 15 18.125Z" fill="black" stroke="black" stroke-width="4" stroke-linejoin="round"/>
</mask>
<g mask="url(#mask0_840_1775)">
<path d="M0 0H30V30H0V0Z" fill="#D7D7D7"/>
</g>
</svg>
