<svg width="27" height="22" viewBox="0 0 27 22" fill="none" xmlns="http://www.w3.org/2000/svg">
<path d="M25.8508 16.8992C25.9379 16.9863 26.0071 17.0897 26.0543 17.2035C26.1015 17.3173 26.1257 17.4393 26.1257 17.5625C26.1257 17.6857 26.1015 17.8077 26.0543 17.9215C26.0071 18.0353 25.9379 18.1387 25.8508 18.2258L23.0383 21.0383C22.8624 21.2142 22.6238 21.313 22.375 21.313C22.1262 21.313 21.8876 21.2142 21.7117 21.0383C21.5358 20.8624 21.437 20.6238 21.437 20.375C21.437 20.1262 21.5358 19.8876 21.7117 19.7117L22.9246 18.5H21.5477C20.2048 18.4989 18.8816 18.1778 17.6876 17.5634C16.4935 16.9489 15.4631 16.0588 14.6816 14.9668L9.79258 8.12305C9.18473 7.27374 8.38328 6.58147 7.4546 6.10358C6.52593 5.62569 5.49676 5.37593 4.45234 5.375H1.75C1.50136 5.375 1.2629 5.27623 1.08709 5.10042C0.911272 4.9246 0.8125 4.68614 0.8125 4.4375C0.8125 4.18886 0.911272 3.95041 1.08709 3.77459C1.2629 3.59877 1.50136 3.5 1.75 3.5H4.45234C5.79518 3.50112 7.11843 3.82219 8.31245 4.43663C9.50647 5.05107 10.5369 5.94117 11.3184 7.03321L16.2074 13.877C16.8153 14.7263 17.6167 15.4185 18.5454 15.8964C19.4741 16.3743 20.5032 16.6241 21.5477 16.625H22.9246L21.7117 15.4133C21.5358 15.2374 21.437 14.9988 21.437 14.75C21.437 14.5012 21.5358 14.2626 21.7117 14.0867C21.8876 13.9108 22.1262 13.812 22.375 13.812C22.6238 13.812 22.8624 13.9108 23.0383 14.0867L25.8508 16.8992ZM14.7578 8.53907C14.858 8.61063 14.9713 8.66176 15.0912 8.68953C15.2112 8.71731 15.3354 8.72119 15.4569 8.70095C15.5783 8.68071 15.6946 8.63674 15.799 8.57157C15.9035 8.50639 15.9941 8.42128 16.0656 8.3211L16.2063 8.12539C16.814 7.27549 17.6155 6.58266 18.5444 6.10435C19.4733 5.62604 20.5028 5.37602 21.5477 5.375H22.9246L21.7117 6.58672C21.5358 6.76263 21.437 7.00122 21.437 7.25C21.437 7.49878 21.5358 7.73737 21.7117 7.91328C21.8876 8.0892 22.1262 8.18802 22.375 8.18802C22.6238 8.18802 22.8624 8.0892 23.0383 7.91328L25.8508 5.10078C25.9379 5.01372 26.0071 4.91032 26.0543 4.79651C26.1015 4.6827 26.1257 4.5607 26.1257 4.4375C26.1257 4.3143 26.1015 4.19231 26.0543 4.0785C26.0071 3.96469 25.9379 3.86129 25.8508 3.77422L23.0383 0.961721C22.8624 0.785808 22.6238 0.686981 22.375 0.686981C22.1262 0.686981 21.8876 0.785808 21.7117 0.961721C21.5358 1.13763 21.437 1.37622 21.437 1.625C21.437 1.87378 21.5358 2.11237 21.7117 2.28828L22.9246 3.5H21.5477C20.2048 3.50112 18.8816 3.82219 17.6876 4.43663C16.4935 5.05107 15.4631 5.94117 14.6816 7.03321L14.541 7.22891C14.469 7.3291 14.4175 7.44251 14.3895 7.56265C14.3614 7.68278 14.3573 7.80728 14.3775 7.92899C14.3976 8.05071 14.4416 8.16725 14.5068 8.27194C14.5721 8.37663 14.6574 8.4674 14.7578 8.53907ZM11.2422 13.4609C11.142 13.3894 11.0287 13.3382 10.9088 13.3105C10.7888 13.2827 10.6646 13.2788 10.5431 13.2991C10.4217 13.3193 10.3054 13.3633 10.201 13.4284C10.0965 13.4936 10.0059 13.5787 9.93438 13.6789L9.79375 13.8746C9.18604 14.7245 8.38451 15.4173 7.45561 15.8957C6.5267 16.374 5.49717 16.624 4.45234 16.625H1.75C1.50136 16.625 1.2629 16.7238 1.08709 16.8996C0.911272 17.0754 0.8125 17.3139 0.8125 17.5625C0.8125 17.8111 0.911272 18.0496 1.08709 18.2254C1.2629 18.4012 1.50136 18.5 1.75 18.5H4.45234C5.79518 18.4989 7.11843 18.1778 8.31245 17.5634C9.50647 16.9489 10.5369 16.0588 11.3184 14.9668L11.459 14.7711C11.531 14.6709 11.5825 14.5575 11.6105 14.4374C11.6386 14.3172 11.6427 14.1927 11.6226 14.071C11.6024 13.9493 11.5584 13.8328 11.4932 13.7281C11.4279 13.6234 11.3426 13.5326 11.2422 13.4609Z" fill="white"/>
</svg>
