<svg width="40" height="40" viewBox="0 0 40 40" fill="none" xmlns="http://www.w3.org/2000/svg">
<path fill-rule="evenodd" clip-rule="evenodd" d="M34.6508 33.6334C34.5972 33.6911 27.5466 30.3252 27.4828 30.3713C27.4189 30.4173 28.39 38.1695 28.3183 38.2023C28.2467 38.235 23.0209 32.4272 22.9443 32.4453C22.8676 32.4634 20.7981 39.9972 20.7194 40C20.6407 40.0028 18.0353 32.6373 17.9575 32.6247C17.8798 32.6121 13.0848 38.7804 13.011 38.7529C12.9372 38.7254 13.3488 30.9234 13.2817 30.8821C13.2147 30.8407 6.42423 34.7045 6.36657 34.6508C6.30892 34.5972 9.67483 27.5466 9.62875 27.4828C9.58267 27.4189 1.83046 28.39 1.79772 28.3183C1.76499 28.2467 7.57281 23.0209 7.55468 22.9443C7.53655 22.8676 0.00283203 20.7981 8.16519e-07 20.7194C-0.0028313 20.6407 7.36272 18.0353 7.3753 17.9575C7.38788 17.8798 1.2196 13.0848 1.2471 13.011C1.2746 12.9372 9.07655 13.3488 9.11792 13.2817C9.15929 13.2147 5.2955 6.42423 5.34915 6.36657C5.4028 6.30892 12.4534 9.67483 12.5172 9.62875C12.5811 9.58267 11.61 1.83046 11.6817 1.79772C11.7533 1.76499 16.9791 7.57281 17.0557 7.55468C17.1324 7.53655 19.2019 0.00283203 19.2806 8.16519e-07C19.3593 -0.0028313 21.9647 7.36273 22.0425 7.3753C22.1202 7.38788 26.9152 1.2196 26.989 1.2471C27.0628 1.2746 26.6512 9.07655 26.7183 9.11792C26.7853 9.15929 33.5758 5.2955 33.6334 5.34915C33.6911 5.4028 30.3252 12.4534 30.3712 12.5172C30.4173 12.5811 38.1695 11.61 38.2023 11.6817C38.235 11.7533 32.4272 16.9791 32.4453 17.0557C32.4634 17.1324 39.9972 19.2019 40 19.2806C40.0028 19.3593 32.6373 21.9647 32.6247 22.0425C32.6121 22.1202 38.7804 26.9152 38.7529 26.989C38.7254 27.0628 30.9234 26.6512 30.8821 26.7183C30.8407 26.7853 34.7045 33.5758 34.6508 33.6334Z" fill="#FFBB00"/>
<path fill-rule="evenodd" clip-rule="evenodd" d="M33.5949 32.6509C33.5505 32.6986 27.5357 30.3331 27.4828 30.3712C27.4299 30.4094 27.7782 36.8633 27.7188 36.8904C27.6595 36.9175 23.0077 32.4303 22.9443 32.4453C22.8808 32.4603 20.7328 38.5562 20.6676 38.5586C20.6024 38.5609 18.0219 32.6351 17.9575 32.6247C17.8931 32.6143 13.5758 37.4241 13.5147 37.4014C13.4536 37.3786 13.3372 30.9163 13.2817 30.8821C13.2262 30.8478 7.3969 33.6394 7.34914 33.5949C7.30138 33.5505 9.66691 27.5357 9.62875 27.4828C9.59058 27.4299 3.13668 27.7782 3.10957 27.7188C3.08245 27.6595 7.5697 23.0077 7.55468 22.9443C7.53966 22.8808 1.44375 20.7328 1.44141 20.6676C1.43907 20.6024 7.36488 18.0219 7.3753 17.9575C7.38572 17.8931 2.57584 13.5758 2.59863 13.5147C2.62141 13.4536 9.08365 13.3373 9.11792 13.2817C9.15219 13.2262 6.36061 7.39689 6.40505 7.34914C6.44948 7.30138 12.4643 9.66691 12.5172 9.62874C12.5701 9.59058 12.2218 3.13668 12.2812 3.10957C12.3405 3.08245 16.9922 7.5697 17.0557 7.55468C17.1192 7.53966 19.2672 1.44375 19.3324 1.44141C19.3976 1.43907 21.9781 7.36488 22.0425 7.3753C22.1069 7.38572 26.4242 2.57584 26.4853 2.59863C26.5464 2.62141 26.6627 9.08365 26.7183 9.11792C26.7738 9.15219 32.6031 6.3606 32.6509 6.40504C32.6986 6.44948 30.3331 12.4643 30.3712 12.5172C30.4094 12.5701 36.8633 12.2218 36.8904 12.2812C36.9175 12.3405 32.4303 16.9922 32.4453 17.0557C32.4603 17.1192 38.5562 19.2672 38.5586 19.3324C38.5609 19.3976 32.6351 21.9781 32.6247 22.0425C32.6143 22.1069 37.4241 26.4242 37.4014 26.4853C37.3786 26.5464 30.9163 26.6627 30.8821 26.7183C30.8478 26.7738 33.6394 32.6031 33.5949 32.6509Z" fill="url(#paint0_radial_510_432)"/>
<path fill-rule="evenodd" clip-rule="evenodd" d="M19.6041 5.51078C18.9587 5.48056 18.3678 5.87351 18.1463 6.48087C18.1109 6.57836 18.0583 6.71797 18.0247 6.80993C17.9185 7.09704 17.8286 7.33605 17.7605 7.51342C17.7215 7.61363 17.6979 7.67499 17.6752 7.72937C17.6652 7.75388 17.6698 7.7448 17.6353 7.81379C17.5872 7.91182 17.6371 7.82014 17.5962 7.88459C17.5436 7.9681 17.599 7.89276 17.5336 7.96719C17.441 8.0734 17.4465 8.07067 17.4229 8.10063C17.3838 8.11606 17.3285 8.13875 17.2014 8.16871C17.0752 8.19866 17.0189 8.20502 16.9772 8.20865C16.9427 8.19231 16.9481 8.1914 16.8156 8.13784C16.723 8.09972 16.8038 8.14148 16.7221 8.09246C16.6513 8.04889 16.7294 8.10063 16.6567 8.04707C16.6032 8.00622 16.6177 8.01621 16.5832 7.98716C16.5351 7.94631 16.487 7.90365 16.4098 7.83376C16.2691 7.7054 16.0803 7.53221 15.857 7.32334C15.8089 7.27859 15.7009 7.16957 15.602 7.07662C15.1635 6.66442 14.5199 6.55867 13.9726 6.80902C13.4261 7.05946 13.0857 7.61608 13.1111 8.21682C13.1157 8.31848 13.1211 8.47007 13.1257 8.57446C13.1375 8.88672 13.1493 9.14542 13.1538 9.32606C13.1556 9.41774 13.1574 9.47675 13.1565 9.55299C13.1565 9.62471 13.1574 9.59657 13.1538 9.64921C13.1493 9.72274 13.1574 9.64468 13.142 9.73182C13.1257 9.83076 13.1493 9.73545 13.1166 9.83076C13.0721 9.9642 13.0767 9.95875 13.0658 9.99506C13.0358 10.0241 12.994 10.0659 12.8869 10.143C12.7825 10.2184 12.7308 10.2456 12.6945 10.2647C12.6546 10.2637 12.6618 10.261 12.5211 10.2619C12.414 10.2628 12.4948 10.2683 12.4158 10.2565C12.3423 10.2456 12.444 10.2647 12.3369 10.2365C12.2715 10.2202 12.2887 10.2247 12.2461 10.2111C12.1844 10.1911 12.1235 10.1693 12.0273 10.1348C11.8512 10.0713 11.6125 9.98235 11.3238 9.87342C11.2421 9.84256 11.1005 9.78991 10.9925 9.74906C10.4306 9.53575 9.79612 9.68371 9.38673 10.123C8.97734 10.5624 8.87386 11.206 9.12531 11.7515C9.17251 11.8532 9.23786 11.9893 9.27599 12.0719C9.40579 12.3524 9.51018 12.5857 9.58552 12.7555C9.62909 12.8553 9.65723 12.9152 9.67902 12.9679C9.69173 13.0006 9.68628 12.9869 9.70988 13.0559C9.7471 13.1658 9.71987 13.065 9.7353 13.1358C9.76072 13.2456 9.74347 13.1385 9.74982 13.2347C9.7589 13.3736 9.75981 13.3673 9.76435 13.4054C9.7471 13.4435 9.72259 13.4998 9.6536 13.6124C9.58462 13.7231 9.55012 13.7703 9.52289 13.8021C9.48749 13.8157 9.49203 13.8093 9.36131 13.8647C9.27326 13.9019 9.37312 13.8692 9.2651 13.8956C9.17705 13.9174 9.25239 13.9037 9.18521 13.9128C9.12167 13.9219 9.13983 13.9174 9.089 13.921C9.01728 13.9273 8.95374 13.931 8.85934 13.9355C8.67689 13.9446 8.41818 13.9537 8.10774 13.9637C8.0088 13.9673 7.85902 13.9718 7.75282 13.9755C7.1519 13.9936 6.62088 14.3739 6.41119 14.9376C6.20151 15.5013 6.35401 16.1358 6.79698 16.5425C6.88503 16.6233 6.99668 16.725 7.0575 16.7803C7.28715 16.9927 7.47687 17.167 7.60849 17.2914C7.6684 17.3495 7.71651 17.3958 7.77551 17.4557C7.8209 17.502 7.80274 17.4811 7.84087 17.5238C7.91984 17.6145 7.84631 17.5265 7.88898 17.5864C7.93346 17.649 7.89533 17.581 7.94253 17.6772C8.00698 17.807 8.00698 17.7997 8.02514 17.8333C8.02423 17.8751 8.0206 17.9322 7.99972 18.0602C7.97884 18.1873 7.96432 18.2409 7.95161 18.2817C7.92438 18.3062 7.92529 18.3026 7.82362 18.4061C7.75372 18.4769 7.82997 18.4106 7.74737 18.4714C7.68746 18.5159 7.77733 18.4587 7.67929 18.5168C7.62937 18.5459 7.64934 18.5341 7.59396 18.5622C7.52679 18.5967 7.46961 18.6221 7.387 18.6612C7.21453 18.7428 6.98216 18.85 6.70348 18.9761C6.62542 19.0115 6.48835 19.0733 6.38305 19.1214C5.83569 19.3683 5.49348 19.922 5.51526 20.522C5.53705 21.1211 5.9192 21.6485 6.482 21.8555C6.59002 21.8954 6.73162 21.9471 6.81423 21.9771C7.09925 22.0824 7.33435 22.1713 7.51409 22.2412C7.61575 22.2803 7.67748 22.3039 7.73012 22.3266C7.77733 22.3465 7.76189 22.3384 7.81817 22.3665C7.91712 22.4155 7.82453 22.3656 7.88898 22.4055C7.95433 22.4473 7.88625 22.3965 7.96795 22.4682C8.07415 22.5608 8.07234 22.5553 8.10139 22.5789C8.11682 22.6179 8.13951 22.6733 8.16946 22.8004C8.18853 22.8803 8.18944 22.8975 8.20124 23.0301C8.23755 23.444 8.44723 23.8243 8.77764 24.0767C9.10897 24.3281 9.53015 24.4298 9.93954 24.3544C16.6195 24.4561 24.7419 21.8291 30.8854 17.944C31.3093 17.7825 31.6361 17.4348 31.7704 17.0018C31.7541 17.0563 31.7305 17.1371 31.8612 16.8148C31.8993 16.7222 31.8576 16.803 31.9066 16.7213C31.9502 16.6496 31.8984 16.7268 31.952 16.656C31.9792 16.6206 31.9565 16.6505 32.0146 16.5825C32.0709 16.5162 32.1099 16.4726 32.1653 16.4118C32.2942 16.2702 32.4676 16.0814 32.6754 15.859C32.7344 15.7955 32.8406 15.6847 32.9196 15.6003C33.3317 15.1628 33.437 14.5183 33.1874 13.9718C32.9369 13.4254 32.3804 13.0841 31.7795 13.1104C31.6497 13.1158 31.4981 13.124 31.4273 13.1267C31.1232 13.1394 30.8682 13.1485 30.6757 13.1531C30.5831 13.1549 30.5205 13.1558 30.4461 13.1558C30.3725 13.1549 30.4061 13.1567 30.3526 13.1531C30.2772 13.1476 30.3589 13.1558 30.2727 13.1412C30.1728 13.124 30.2654 13.1476 30.171 13.1158C30.0367 13.0704 30.043 13.0759 30.0067 13.065C29.9777 13.035 29.9359 12.9924 29.8588 12.8862C29.7825 12.78 29.7553 12.7291 29.7371 12.6928C29.738 12.6538 29.7408 12.6611 29.7398 12.5204C29.7389 12.4142 29.7335 12.4949 29.7453 12.4151C29.7562 12.3452 29.7335 12.4614 29.7653 12.3388C29.7816 12.2744 29.7762 12.2916 29.7907 12.248C29.8134 12.1791 29.8352 12.1155 29.8669 12.0266C29.9305 11.8514 30.0194 11.6117 30.1284 11.3231C30.1547 11.2523 30.2091 11.1116 30.2527 10.9936C30.4669 10.4317 30.319 9.79536 29.8787 9.38597C29.4376 8.97568 28.7931 8.87401 28.2475 9.12727C28.1468 9.17447 28.0106 9.23892 27.9271 9.27795C27.6512 9.40503 27.4197 9.50852 27.2436 9.58658C27.1446 9.63106 27.0847 9.6592 27.0303 9.68098C26.9994 9.69279 27.013 9.68825 26.9431 9.71185C26.816 9.75451 26.9322 9.72274 26.866 9.73726C26.7661 9.75996 26.8623 9.74543 26.7643 9.75179C26.6254 9.76086 26.6318 9.76177 26.5937 9.7654C26.5555 9.74906 26.4992 9.72456 26.3867 9.65466C26.2759 9.58658 26.2315 9.55118 26.1997 9.52486C26.1861 9.48855 26.1897 9.4949 26.1343 9.36328C26.0971 9.27432 26.1289 9.36963 26.1035 9.26343C26.0817 9.17538 26.0953 9.24891 26.0862 9.18446C26.0772 9.12001 26.0817 9.13998 26.0772 9.09096C26.0717 9.01471 26.0681 8.95299 26.0635 8.8604C26.0545 8.67613 26.0454 8.41924 26.0354 8.1088C26.0318 8.00985 26.0272 7.85917 26.0236 7.75478C26.0054 7.15332 25.6251 6.62284 25.0614 6.41298C24.4977 6.20311 23.8632 6.35552 23.4565 6.79858C23.3748 6.88708 23.275 6.99801 23.2214 7.05674C23.009 7.28594 22.8357 7.47602 22.7104 7.607C22.6523 7.66773 22.606 7.71548 22.5461 7.77475C22.4998 7.82014 22.5207 7.80198 22.478 7.8392C22.3872 7.91817 22.4753 7.84556 22.4154 7.88822C22.3527 7.93179 22.4208 7.89457 22.3246 7.94177C22.1948 8.00532 22.2021 8.00532 22.1685 8.02438C22.1267 8.02347 22.0695 8.01893 21.9415 7.99805C21.8145 7.97808 21.7609 7.96265 21.7201 7.94994C21.6955 7.92271 21.6992 7.92453 21.5957 7.82286C21.5249 7.75297 21.5921 7.83012 21.5303 7.74571C21.4868 7.6867 21.544 7.77748 21.485 7.67799C21.4559 7.6287 21.4686 7.6493 21.4396 7.59284C21.3996 7.51423 21.3724 7.46177 21.3379 7.3886C21.2589 7.22276 21.1536 6.98494 21.0256 6.70218C20.9902 6.62529 20.9285 6.48814 20.8804 6.38157C20.6526 5.87442 20.1597 5.53793 19.6041 5.51078Z" fill="url(#paint1_linear_510_432)"/>
<g filter="url(#filter0_f_510_432)">
<path d="M20.0004 29.8548C25.4434 29.8548 29.8557 25.4425 29.8557 19.9995C29.8557 14.5566 25.4434 10.1442 20.0004 10.1442C14.5575 10.1442 10.1451 14.5566 10.1451 19.9995C10.1451 25.4425 14.5575 29.8548 20.0004 29.8548Z" fill="url(#paint2_radial_510_432)"/>
</g>
<path fill-rule="evenodd" clip-rule="evenodd" d="M19.2675 11.2182C15.7016 11.2182 12.5988 13.7267 11.806 17.0872C11.7064 17.5098 11.6955 17.9485 11.7742 18.3756C11.8528 18.8026 12.0192 19.2086 12.2629 19.568C12.5066 19.9274 12.8222 20.2323 13.1898 20.4634C13.5574 20.6945 13.9689 20.8468 14.3984 20.9107C15.1621 21.0241 16.0236 21.0411 17.1874 20.9633C19.2773 20.8238 21.5911 20.2636 24.0691 19.4924C24.5243 19.3506 24.9412 19.1069 25.2882 18.7799C25.6352 18.4529 25.903 18.0511 26.0715 17.605C26.2399 17.1589 26.3044 16.6804 26.2602 16.2056C26.2159 15.7309 26.0641 15.2725 25.8161 14.8652C24.4804 12.6721 22.0001 11.2182 19.2675 11.2182Z" fill="url(#paint3_linear_510_432)"/>
<defs>
<filter id="filter0_f_510_432" x="7.9935" y="7.9926" width="24.0138" height="24.0139" filterUnits="userSpaceOnUse" color-interpolation-filters="sRGB">
<feFlood flood-opacity="0" result="BackgroundImageFix"/>
<feBlend mode="normal" in="SourceGraphic" in2="BackgroundImageFix" result="shape"/>
<feGaussianBlur stdDeviation="1.07582" result="effect1_foregroundBlur_510_432"/>
</filter>
<radialGradient id="paint0_radial_510_432" cx="0" cy="0" r="1" gradientUnits="userSpaceOnUse" gradientTransform="translate(19.9991 19.9999) rotate(-90) scale(19.6953 20.7167)">
<stop stop-color="#FFFDBC"/>
<stop offset="1" stop-color="#FCFF00"/>
</radialGradient>
<linearGradient id="paint1_linear_510_432" x1="22.9019" y1="5.4782" x2="22.9019" y2="25.7669" gradientUnits="userSpaceOnUse">
<stop stop-color="white" stop-opacity="0.375"/>
<stop offset="1" stop-color="white" stop-opacity="0"/>
</linearGradient>
<radialGradient id="paint2_radial_510_432" cx="0" cy="0" r="1" gradientUnits="userSpaceOnUse" gradientTransform="translate(20.2035 19.7828) rotate(91.1557) scale(10.0741 9.85522)">
<stop stop-color="#FFFF00"/>
<stop offset="0.5" stop-color="#FFD400"/>
<stop offset="1" stop-color="#FFA900"/>
</radialGradient>
<linearGradient id="paint3_linear_510_432" x1="19.0549" y1="12.1954" x2="20.8885" y2="21.0104" gradientUnits="userSpaceOnUse">
<stop stop-color="white"/>
<stop offset="1" stop-color="white" stop-opacity="0"/>
</linearGradient>
</defs>
</svg>
