<svg width="120" height="111" viewBox="0 0 120 111" fill="none" xmlns="http://www.w3.org/2000/svg">
<path fill-rule="evenodd" clip-rule="evenodd" d="M96.1178 93.2956C95.969 93.4556 76.4115 84.1189 76.2343 84.2467C76.0572 84.3745 78.7508 105.878 78.5521 105.969C78.3534 106.06 63.8576 89.9497 63.645 89.9999C63.4324 90.0502 57.6919 110.948 57.4735 110.956C57.2552 110.964 50.028 90.5324 49.8123 90.4975C49.5967 90.4626 36.2959 107.573 36.0911 107.497C35.8864 107.42 37.0281 85.7784 36.8422 85.6637C36.6563 85.5489 17.8201 96.2667 17.6602 96.1179C17.5003 95.969 26.837 76.4115 26.7092 76.2343C26.5813 76.0572 5.0775 78.7508 4.98669 78.5521C4.89589 78.3534 21.0062 63.8576 20.9559 63.645C20.9056 63.4324 0.00785575 57.6919 2.26494e-06 57.4735C-0.00785373 57.2552 20.4234 50.028 20.4583 49.8123C20.4932 49.5967 3.38303 36.2959 3.45932 36.0911C3.53561 35.8864 25.1774 37.0281 25.2922 36.8422C25.4069 36.6563 14.6892 17.8201 14.838 17.6602C14.9868 17.5003 34.5444 26.837 34.7215 26.7091C34.8987 26.5813 32.205 5.0775 32.4037 4.98669C32.6024 4.89589 47.0982 21.0062 47.3108 20.9559C47.5234 20.9056 53.264 0.00785575 53.4823 2.26494e-06C53.7006 -0.00785373 60.9279 20.4234 61.1435 20.4583C61.3592 20.4932 74.66 3.38303 74.8647 3.45932C75.0694 3.53561 73.9278 25.1774 74.1137 25.2922C74.2996 25.4069 93.1357 14.6892 93.2956 14.838C93.4556 14.9868 84.1189 34.5444 84.2467 34.7215C84.3745 34.8987 105.878 32.205 105.969 32.4037C106.06 32.6024 89.9497 47.0982 89.9999 47.3108C90.0502 47.5234 110.948 53.264 110.956 53.4823C110.964 53.7006 90.5324 60.9279 90.4975 61.1435C90.4626 61.3592 107.573 74.66 107.497 74.8647C107.42 75.0694 85.7785 73.9278 85.6637 74.1137C85.5489 74.2996 96.2667 93.1357 96.1178 93.2956Z" fill="#FFBB00"/>
<path fill-rule="evenodd" clip-rule="evenodd" d="M93.1889 90.5701C93.0657 90.7026 76.3811 84.1408 76.2344 84.2467C76.0876 84.3526 77.0537 102.255 76.8892 102.33C76.7246 102.405 63.8211 89.9583 63.6451 90C63.469 90.0416 57.5106 106.951 57.3297 106.958C57.1489 106.964 49.991 90.5264 49.8124 90.4975C49.6337 90.4686 37.658 103.811 37.4884 103.748C37.3188 103.684 36.9962 85.7587 36.8422 85.6637C36.6882 85.5686 20.5183 93.3122 20.3858 93.1889C20.2533 93.0656 26.8151 76.3811 26.7092 76.2343C26.6033 76.0876 8.70087 77.0537 8.62565 76.8891C8.55044 76.7246 20.9976 63.8211 20.9559 63.645C20.9143 63.4689 4.00486 57.5106 3.99835 57.3297C3.99186 57.1489 20.4295 49.991 20.4584 49.8123C20.4873 49.6337 7.14516 37.6579 7.20836 37.4884C7.27155 37.3188 25.1971 36.9962 25.2922 36.8422C25.3873 36.6882 17.6437 20.5182 17.767 20.3858C17.8902 20.2533 34.5748 26.815 34.7215 26.7092C34.8683 26.6033 33.9022 8.70083 34.0667 8.62562C34.2313 8.55041 47.1348 20.9976 47.3109 20.9559C47.487 20.9143 53.4453 4.00483 53.6262 3.99832C53.807 3.99183 60.9649 20.4294 61.1436 20.4583C61.3222 20.4872 73.298 7.14513 73.4675 7.20833C73.6371 7.27152 73.9597 25.1971 74.1137 25.2922C74.2677 25.3872 90.4376 17.6437 90.5701 17.7669C90.7026 17.8902 84.1408 34.5748 84.2467 34.7215C84.3526 34.8683 102.255 33.9021 102.33 34.0667C102.405 34.2313 89.9583 47.1347 90 47.3108C90.0416 47.4869 106.951 53.4453 106.958 53.6261C106.964 53.807 90.5264 60.9649 90.4975 61.1435C90.4686 61.3222 103.811 73.2979 103.748 73.4675C103.684 73.6371 85.7588 73.9597 85.6637 74.1137C85.5686 74.2676 93.3122 90.4376 93.1889 90.5701Z" fill="url(#paint0_radial_505_251)"/>
<path fill-rule="evenodd" clip-rule="evenodd" d="M54.3797 15.2863C52.5895 15.2025 50.9503 16.2925 50.3359 17.9773C50.2377 18.2477 50.0917 18.635 49.9985 18.89C49.7039 19.6865 49.4546 20.3494 49.2658 20.8414C49.1575 21.1194 49.0921 21.2896 49.0291 21.4405C49.0014 21.5085 49.014 21.4833 48.9183 21.6746C48.7849 21.9466 48.9234 21.6923 48.8101 21.871C48.664 22.1027 48.8176 21.8937 48.6363 22.1002C48.3795 22.3948 48.3946 22.3872 48.3291 22.4703C48.2208 22.5131 48.0673 22.5761 47.7147 22.6592C47.3647 22.7422 47.2086 22.7599 47.0928 22.7699C46.9971 22.7246 47.0122 22.7221 46.6446 22.5735C46.3878 22.4678 46.6119 22.5836 46.3853 22.4476C46.1889 22.3268 46.4054 22.4703 46.204 22.3217C46.0554 22.2084 46.0957 22.2361 46 22.1556C45.8666 22.0423 45.7331 21.9239 45.5191 21.73C45.1288 21.374 44.6051 20.8936 43.9857 20.3142C43.8522 20.1901 43.5526 19.8876 43.2781 19.6298C42.062 18.4864 40.2767 18.1931 38.7584 18.8875C37.2426 19.5822 36.2984 21.1262 36.3689 22.7926C36.3815 23.0746 36.3966 23.4951 36.4092 23.7847C36.4419 24.6508 36.4746 25.3685 36.4872 25.8695C36.4922 26.1238 36.4973 26.2875 36.4948 26.499C36.4948 26.6979 36.4973 26.6199 36.4872 26.7659C36.4746 26.9699 36.4973 26.7533 36.4545 26.9951C36.4092 27.2695 36.4746 27.0051 36.384 27.2695C36.2606 27.6397 36.2732 27.6245 36.243 27.7253C36.1599 27.8058 36.0441 27.9217 35.7469 28.1357C35.4574 28.3447 35.3139 28.4202 35.2131 28.4731C35.1023 28.4706 35.1225 28.463 34.7322 28.4655C34.4351 28.4681 34.6592 28.4832 34.4401 28.4504C34.2362 28.4202 34.5182 28.4731 34.2211 28.395C34.0398 28.3497 34.0876 28.3623 33.9693 28.3245C33.798 28.2691 33.6293 28.2087 33.3624 28.113C32.874 27.9368 32.2117 27.69 31.411 27.3879C31.1844 27.3022 30.7916 27.1562 30.492 27.0429C28.9334 26.4512 27.1733 26.8616 26.0377 28.0803C24.9021 29.299 24.6151 31.0842 25.3126 32.5975C25.4435 32.8795 25.6248 33.2572 25.7305 33.4863C26.0906 34.2644 26.3802 34.9115 26.5892 35.3823C26.71 35.6593 26.7881 35.8255 26.8485 35.9715C26.8838 36.0622 26.8687 36.0244 26.9341 36.2158C27.0374 36.5205 26.9618 36.241 27.0046 36.4374C27.0751 36.742 27.0273 36.4449 27.0449 36.7118C27.0701 37.0971 27.0726 37.0794 27.0852 37.1852C27.0374 37.2909 26.9694 37.4471 26.778 37.7593C26.5866 38.0665 26.491 38.1974 26.4154 38.2855C26.3172 38.3233 26.3298 38.3057 25.9672 38.4593C25.723 38.5625 26 38.4719 25.7003 38.5449C25.4561 38.6053 25.6651 38.5675 25.4787 38.5927C25.3025 38.6179 25.3528 38.6053 25.2118 38.6154C25.0129 38.633 24.8367 38.6431 24.5748 38.6557C24.0687 38.6809 23.3511 38.706 22.4899 38.7337C22.2155 38.7438 21.8 38.7564 21.5054 38.7665C19.8385 38.8168 18.3655 39.8718 17.7839 41.4355C17.2023 42.9991 17.6253 44.7592 18.854 45.8872C19.0983 46.1113 19.408 46.3933 19.5767 46.5469C20.2137 47.1361 20.74 47.6196 21.1051 47.9645C21.2713 48.1257 21.4047 48.2541 21.5684 48.4203C21.6943 48.5487 21.6439 48.4908 21.7497 48.6091C21.9687 48.8609 21.7648 48.6167 21.8831 48.7829C22.0065 48.9566 21.9007 48.7678 22.0317 49.0347C22.2104 49.3947 22.2104 49.3746 22.2608 49.4677C22.2583 49.5836 22.2482 49.7422 22.1903 50.0972C22.1324 50.4497 22.0921 50.5983 22.0569 50.7116C21.9813 50.7796 21.9838 50.7695 21.7018 51.0566C21.5079 51.253 21.7194 51.0692 21.4903 51.2379C21.3241 51.3612 21.5734 51.2026 21.3015 51.3638C21.163 51.4443 21.2184 51.4116 21.0648 51.4897C20.8785 51.5853 20.7198 51.6558 20.4907 51.7641C20.0123 51.9907 19.3677 52.2878 18.5947 52.6378C18.3781 52.736 17.9979 52.9073 17.7058 53.0407C16.1875 53.7256 15.2383 55.2615 15.2987 56.9259C15.3591 58.5877 16.4192 60.0507 17.9803 60.6248C18.2799 60.7356 18.6727 60.8791 18.9019 60.9622C19.6925 61.2543 20.3447 61.501 20.8432 61.6949C21.1252 61.8032 21.2964 61.8686 21.4425 61.9316C21.5734 61.987 21.5306 61.9643 21.6867 62.0424C21.9612 62.1783 21.7043 62.0399 21.8831 62.1507C22.0644 62.2665 21.8756 62.1255 22.1022 62.3244C22.3968 62.5812 22.3917 62.5661 22.4723 62.6316C22.5151 62.7398 22.5781 62.8934 22.6612 63.246C22.714 63.4675 22.7166 63.5154 22.7493 63.883C22.85 65.0312 23.4317 66.0862 24.3482 66.7862C25.2672 67.4837 26.4356 67.7657 27.5712 67.5567C46.1007 67.8387 68.6313 60.5518 85.6728 49.7749C86.8487 49.3267 87.7551 48.3624 88.1278 47.1613C88.0825 47.3124 88.017 47.5365 88.3796 46.6426C88.4854 46.3858 88.3695 46.6099 88.5055 46.3833C88.6264 46.1843 88.4828 46.3984 88.6314 46.202C88.7069 46.1038 88.644 46.1869 88.8051 45.998C88.9613 45.8142 89.0695 45.6933 89.2231 45.5246C89.5807 45.1318 90.0616 44.6081 90.6382 43.9912C90.8019 43.8149 91.0965 43.5078 91.3155 43.2736C92.4587 42.0599 92.7508 40.2722 92.0583 38.7564C91.3634 37.2406 89.8199 36.2938 88.153 36.3669C87.7929 36.382 87.3724 36.4046 87.176 36.4122C86.3325 36.4474 85.625 36.4726 85.0912 36.4852C84.8343 36.4902 84.6606 36.4928 84.4541 36.4928C84.2502 36.4902 84.3433 36.4953 84.1948 36.4852C83.9858 36.4701 84.2124 36.4928 83.9732 36.4525C83.6962 36.4046 83.953 36.4701 83.6912 36.382C83.3185 36.2561 83.3362 36.2712 83.2354 36.241C83.1549 36.1579 83.039 36.0395 82.825 35.7449C82.6135 35.4503 82.538 35.3093 82.4876 35.2086C82.4901 35.1003 82.4977 35.1205 82.4952 34.7302C82.4926 34.4356 82.4775 34.6597 82.5103 34.4381C82.5405 34.2442 82.4775 34.5665 82.5657 34.2266C82.611 34.0478 82.5959 34.0957 82.6362 33.9748C82.6991 33.7834 82.7595 33.6072 82.8477 33.3604C83.0239 32.8745 83.2707 32.2097 83.5728 31.409C83.6459 31.2126 83.7969 30.8223 83.9178 30.495C84.512 28.9364 84.1016 27.1713 82.8804 26.0357C81.6567 24.8976 79.8689 24.6156 78.3556 25.3181C78.0762 25.449 77.6985 25.6278 77.4668 25.7361C76.7014 26.0886 76.0593 26.3756 75.5708 26.5922C75.2963 26.7156 75.1302 26.7936 74.9791 26.8541C74.8935 26.8868 74.9312 26.8742 74.7374 26.9397C74.3848 27.058 74.7071 26.9699 74.5233 27.0102C74.2464 27.0731 74.5133 27.0328 74.2413 27.0505C73.8561 27.0756 73.8737 27.0781 73.7679 27.0882C73.6622 27.0429 73.5061 26.9749 73.1939 26.781C72.8867 26.5922 72.7633 26.494 72.6752 26.421C72.6374 26.3202 72.6475 26.3379 72.4939 25.9728C72.3906 25.726 72.4788 25.9904 72.4083 25.6958C72.3478 25.4516 72.3856 25.6555 72.3604 25.4767C72.3352 25.298 72.3478 25.3534 72.3352 25.2174C72.3201 25.0059 72.3101 24.8347 72.2975 24.5778C72.2723 24.0667 72.2471 23.3541 72.2194 22.493C72.2093 22.2185 72.1968 21.8005 72.1867 21.511C72.1363 19.8426 71.0813 18.3711 69.5177 17.7889C67.954 17.2068 66.194 17.6295 65.0659 18.8586C64.8393 19.1041 64.5623 19.4118 64.4138 19.5747C63.8246 20.2104 63.3436 20.7377 62.9962 21.101C62.835 21.2695 62.7066 21.4019 62.5404 21.5664C62.412 21.6923 62.4699 21.6419 62.3516 21.7451C62.0998 21.9642 62.344 21.7628 62.1778 21.8811C62.0041 22.002 62.1929 21.8987 61.926 22.0297C61.566 22.2059 61.5861 22.2059 61.493 22.2588C61.3771 22.2563 61.2185 22.2437 60.8635 22.1858C60.511 22.1304 60.3624 22.0876 60.2491 22.0523C60.1811 21.9768 60.1912 21.9818 59.9041 21.6998C59.7077 21.5059 59.8941 21.72 59.7228 21.4858C59.602 21.3221 59.7606 21.5739 59.5969 21.2979C59.5164 21.1612 59.5516 21.2184 59.471 21.0618C59.3603 20.8437 59.2847 20.6982 59.189 20.4952C58.97 20.0352 58.6779 19.3755 58.3229 18.5912C58.2247 18.3779 58.0534 17.9974 57.92 17.7018C57.288 16.295 55.9207 15.3616 54.3797 15.2863Z" fill="url(#paint1_linear_505_251)"/>
<g filter="url(#filter0_f_505_251)">
<path d="M55.4794 82.8144C70.5775 82.8144 82.8169 70.5749 82.8169 55.4768C82.8169 40.3786 70.5775 28.1392 55.4794 28.1392C40.3812 28.1392 28.1418 40.3786 28.1418 55.4768C28.1418 70.5749 40.3812 82.8144 55.4794 82.8144Z" fill="url(#paint2_radial_505_251)"/>
</g>
<path fill-rule="evenodd" clip-rule="evenodd" d="M53.4463 31.1181C43.5549 31.1181 34.948 38.0764 32.7489 47.3982C32.4725 48.5705 32.4424 49.7874 32.6605 50.9719C32.8787 52.1564 33.3403 53.2827 34.0162 54.2796C34.6921 55.2765 35.5676 56.1223 36.5872 56.7634C37.6069 57.4045 38.7485 57.8269 39.9398 58.0041C42.0583 58.3188 44.4479 58.3657 47.6761 58.1501C53.4735 57.763 59.8916 56.2091 66.7653 54.0698C68.0281 53.6765 69.1846 53.0007 70.1471 52.0935C71.1095 51.1864 71.8525 50.0718 72.3197 48.8345C72.7869 47.5971 72.9659 46.2696 72.8431 44.9527C72.7204 43.6359 72.2992 42.3643 71.6114 41.2346C67.9062 35.1511 61.0262 31.1181 53.4463 31.1181Z" fill="url(#paint3_linear_505_251)"/>
<path fill-rule="evenodd" clip-rule="evenodd" d="M63.7944 54.6925C55.6186 54.6925 48.3468 58.5928 43.7465 64.6384C42.7418 64.4495 41.7044 64.3538 40.6469 64.3538C31.3783 64.3538 23.8622 71.8724 23.8622 81.1385C23.8622 90.4045 31.3783 97.9307 40.6469 97.9307C42.3465 97.9307 43.9857 97.6764 45.5317 97.2055C50.1219 102.035 56.6132 105.051 63.7944 105.051C67.8155 105.051 71.6126 104.107 74.9841 102.43C78.3557 104.107 82.1553 105.051 86.1739 105.051C94.4504 105.051 101.798 101.048 106.388 94.8764C113.917 94.8134 120 88.6797 120 81.1385C120 74.1864 114.831 68.4405 108.128 67.534C103.81 59.8694 95.5935 54.6925 86.1739 54.6925C82.1527 54.6925 78.3557 55.6342 74.9841 57.3111C71.6126 55.6342 67.8155 54.6925 63.7944 54.6925Z" fill="url(#paint4_linear_505_251)"/>
<path fill-rule="evenodd" clip-rule="evenodd" d="M63.2867 56.6822C56.1134 56.6822 49.6426 60.1658 45.6321 65.436C45.6309 65.4375 45.6298 65.439 45.6286 65.4405C44.9314 66.358 43.8177 66.7877 42.6848 66.5765C41.864 66.4233 41.0122 66.3448 40.1373 66.3448C32.8155 66.3448 26.3614 72.799 26.3614 80.1208C26.3614 81.0849 26.4335 81.4121 26.4081 81.0085C26.5139 82.6897 27.173 84.2887 28.2826 85.5562C29.3923 86.8237 30.8901 87.6884 32.5427 88.0154C40.6179 89.6128 51.5632 88.8906 64.5737 85.6617C75.0725 83.0562 86.377 79.073 97.5957 74.5842C98.8323 74.0892 99.9179 73.2791 100.744 72.2345C101.571 71.1898 102.11 69.947 102.307 68.6297C102.504 67.3123 102.353 65.9663 101.869 64.7254C101.385 63.4844 100.584 62.3919 99.5466 61.5563C95.7771 58.5211 90.8933 56.6822 85.665 56.6822C82.1521 56.6822 78.7622 57.5175 75.8145 58.9838C74.9655 59.4061 73.9861 59.4061 73.1372 58.9838C70.1895 57.5175 66.7996 56.6822 63.2867 56.6822Z" fill="url(#paint5_linear_505_251)"/>
<defs>
<filter id="filter0_f_505_251" x="25.9901" y="25.9876" width="58.9784" height="58.9784" filterUnits="userSpaceOnUse" color-interpolation-filters="sRGB">
<feFlood flood-opacity="0" result="BackgroundImageFix"/>
<feBlend mode="normal" in="SourceGraphic" in2="BackgroundImageFix" result="shape"/>
<feGaussianBlur stdDeviation="1.07582" result="effect1_foregroundBlur_505_251"/>
</filter>
<radialGradient id="paint0_radial_505_251" cx="0" cy="0" r="1" gradientUnits="userSpaceOnUse" gradientTransform="translate(55.4756 55.4777) rotate(-90) scale(54.6328 57.466)">
<stop stop-color="#FFFDBC"/>
<stop offset="1" stop-color="#FCFF00"/>
</radialGradient>
<linearGradient id="paint1_linear_505_251" x1="63.5275" y1="15.196" x2="63.5275" y2="71.4746" gradientUnits="userSpaceOnUse">
<stop stop-color="white" stop-opacity="0.375"/>
<stop offset="1" stop-color="white" stop-opacity="0"/>
</linearGradient>
<radialGradient id="paint2_radial_505_251" cx="0" cy="0" r="1" gradientUnits="userSpaceOnUse" gradientTransform="translate(56.0427 54.8755) rotate(91.1557) scale(27.9444 27.3374)">
<stop stop-color="#FFFF00"/>
<stop offset="0.5" stop-color="#FFD400"/>
<stop offset="1" stop-color="#FFA900"/>
</radialGradient>
<linearGradient id="paint3_linear_505_251" x1="52.8564" y1="33.8288" x2="57.9427" y2="58.2806" gradientUnits="userSpaceOnUse">
<stop stop-color="white"/>
<stop offset="1" stop-color="white" stop-opacity="0"/>
</linearGradient>
<linearGradient id="paint4_linear_505_251" x1="70.1512" y1="62.3176" x2="71.9314" y2="96.4005" gradientUnits="userSpaceOnUse">
<stop stop-color="#96BEFF"/>
<stop offset="1" stop-color="#09719F"/>
</linearGradient>
<linearGradient id="paint5_linear_505_251" x1="57.4341" y1="50.1103" x2="64.371" y2="85.7191" gradientUnits="userSpaceOnUse">
<stop stop-color="white"/>
<stop offset="1" stop-color="white" stop-opacity="0"/>
</linearGradient>
</defs>
</svg>
