<svg width="120" height="122" viewBox="0 0 120 122" fill="none" xmlns="http://www.w3.org/2000/svg">
<path d="M60 16.5517C58.4545 16.5517 57.1582 16.0221 56.1109 14.9628C55.0636 13.9035 54.5418 12.594 54.5455 11.0345V5.51726C54.5455 3.95404 55.0691 2.64278 56.1164 1.58347C57.1636 0.524156 58.4582 -0.00365907 60 1.90908e-05C61.5455 1.90908e-05 62.8418 0.529674 63.8891 1.58898C64.9364 2.64829 65.4582 3.95772 65.4545 5.51726V11.0345C65.4545 12.5977 64.9309 13.909 63.8836 14.9683C62.8364 16.0276 61.5418 16.5554 60 16.5517ZM60 121.379C58.4545 121.379 57.1582 120.85 56.1109 119.79C55.0636 118.731 54.5418 117.422 54.5455 115.862V110.345C54.5455 108.782 55.0691 107.47 56.1164 106.411C57.1636 105.352 58.4582 104.824 60 104.828C61.5455 104.828 62.8418 105.357 63.8891 106.417C64.9364 107.476 65.4582 108.785 65.4545 110.345V115.862C65.4545 117.425 64.9309 118.737 63.8836 119.796C62.8364 120.855 61.5418 121.383 60 121.379ZM109.091 66.2069C107.545 66.2069 106.249 65.6772 105.202 64.6179C104.155 63.5586 103.633 62.2492 103.636 60.6897C103.636 59.1264 104.16 57.8152 105.207 56.7559C106.255 55.6966 107.549 55.1687 109.091 55.1724H114.545C116.091 55.1724 117.387 55.7021 118.435 56.7614C119.482 57.8207 120.004 59.1301 120 60.6897C120 62.2529 119.476 63.5641 118.429 64.6234C117.382 65.6828 116.087 66.2106 114.545 66.2069H109.091ZM5.45456 66.2069C3.90911 66.2069 2.61274 65.6772 1.56547 64.6179C0.5182 63.5586 -0.00361749 62.2492 1.88739e-05 60.6897C1.88739e-05 59.1264 0.523655 57.8152 1.57093 56.7559C2.6182 55.6966 3.91274 55.1687 5.45456 55.1724H10.9091C12.4546 55.1724 13.7509 55.7021 14.7982 56.7614C15.8455 57.8207 16.3673 59.1301 16.3637 60.6897C16.3637 62.2529 15.84 63.5641 14.7927 64.6234C13.7455 65.6828 12.4509 66.2106 10.9091 66.2069H5.45456ZM92.7273 27.5862C91.7273 26.5747 91.2273 25.3094 91.2273 23.7904C91.2273 22.2713 91.7273 20.9619 92.7273 19.8621L94.6364 17.7931C95.6364 16.6897 96.9091 16.1379 98.4545 16.1379C100 16.1379 101.318 16.6897 102.409 17.7931C103.5 18.8966 104.045 20.2299 104.045 21.7931C104.045 23.3563 103.5 24.6897 102.409 25.7931L100.364 27.7241C99.2727 28.7356 98 29.2414 96.5454 29.2414C95.0909 29.2414 93.8182 28.6897 92.7273 27.5862ZM17.5909 103.586C16.5 102.483 15.9546 101.149 15.9546 99.5862C15.9546 98.023 16.5 96.6896 17.5909 95.5862L19.6364 93.6552C20.7273 92.6437 22 92.1379 23.4546 92.1379C24.9091 92.1379 26.1818 92.6896 27.2727 93.7931C28.2727 94.8046 28.7964 96.0919 28.8436 97.6552C28.8909 99.2184 28.3673 100.506 27.2727 101.517L25.3636 103.586C24.3636 104.69 23.0909 105.241 21.5455 105.241C20 105.241 18.6818 104.69 17.5909 103.586ZM94.5 103.586L92.5909 101.517C91.5909 100.414 91.0909 99.1264 91.0909 97.6552C91.0909 96.1839 91.6364 94.8965 92.7273 93.7931C93.7273 92.7816 95 92.2538 96.5454 92.2096C98.0909 92.1655 99.3636 92.6933 100.364 93.7931L102.409 95.7241C103.5 96.7356 104.045 98.023 104.045 99.5862C104.045 101.149 103.5 102.483 102.409 103.586C101.318 104.69 100 105.241 98.4545 105.241C96.9091 105.241 95.5909 104.69 94.5 103.586ZM19.6364 27.5862L17.5909 25.6552C16.5 24.6437 15.9546 23.3563 15.9546 21.7931C15.9546 20.2299 16.5 18.8966 17.5909 17.7931C18.6818 16.6897 20 16.1379 21.5455 16.1379C23.0909 16.1379 24.4091 16.6897 25.5 17.7931L27.4091 19.8621C28.4091 20.9655 28.9091 22.2529 28.9091 23.7241C28.9091 25.1954 28.3636 26.4828 27.2727 27.5862C26.2727 28.5977 25.0236 29.1035 23.5255 29.1035C22.0273 29.1035 20.7309 28.5977 19.6364 27.5862ZM60 93.7931C50.9091 93.7931 43.1818 90.5747 36.8182 84.1379C30.4546 77.7011 27.2727 69.8851 27.2727 60.6897C27.2727 51.4943 30.4546 43.6782 36.8182 37.2414C43.1818 30.8046 50.9091 27.5862 60 27.5862C69.0909 27.5862 76.8182 30.8046 83.1818 37.2414C89.5454 43.6782 92.7273 51.4943 92.7273 60.6897C92.7273 69.8851 89.5454 77.7011 83.1818 84.1379C76.8182 90.5747 69.0909 93.7931 60 93.7931Z" fill="#FFC700"/>
</svg>
