<svg width="38" height="34" viewBox="0 0 38 34" fill="none" xmlns="http://www.w3.org/2000/svg">
<path d="M29.6031 3.09375C28.0651 3.09375 26.5901 3.71108 25.5026 4.80992C24.4151 5.90877 23.8041 7.39912 23.8041 8.95313C23.8041 9.26393 23.6819 9.562 23.4644 9.78177C23.2469 10.0015 22.9519 10.125 22.6443 10.125C22.3367 10.125 22.0417 10.0015 21.8242 9.78177C21.6067 9.562 21.4845 9.26393 21.4845 8.95313C21.4845 7.3307 21.9607 5.74471 22.8528 4.39572C23.7448 3.04672 25.0128 1.9953 26.4963 1.37443C27.9797 0.753554 29.6121 0.591105 31.1869 0.907624C32.7618 1.22414 34.2084 2.00542 35.3438 3.15264C36.4792 4.29987 37.2524 5.76153 37.5657 7.35278C37.8789 8.94403 37.7181 10.5934 37.1037 12.0923C36.4892 13.5913 35.4486 14.8724 34.1135 15.7738C32.7784 16.6751 31.2088 17.1563 29.6031 17.1563H1.76804C1.46044 17.1563 1.16545 17.0328 0.947942 16.813C0.730438 16.5932 0.608246 16.2952 0.608246 15.9844C0.608246 15.6736 0.730438 15.3755 0.947942 15.1557C1.16545 14.936 1.46044 14.8125 1.76804 14.8125H29.6031C31.1411 14.8125 32.6161 14.1952 33.7036 13.0963C34.7911 11.9975 35.4021 10.5071 35.4021 8.95313C35.4021 7.39912 34.7911 5.90877 33.7036 4.80992C32.6161 3.71108 31.1411 3.09375 29.6031 3.09375ZM13.366 5.4375C12.7508 5.4375 12.1608 5.68443 11.7258 6.12397C11.2908 6.56351 11.0464 7.15965 11.0464 7.78125C11.0464 8.09205 10.9242 8.39012 10.7067 8.60989C10.4892 8.82966 10.1942 8.95313 9.8866 8.95313C9.579 8.95313 9.284 8.82966 9.0665 8.60989C8.84899 8.39012 8.7268 8.09205 8.7268 7.78125C8.7268 6.85415 8.99888 5.94787 9.50864 5.17702C10.0184 4.40616 10.7429 3.80535 11.5906 3.45057C12.4383 3.09578 13.3711 3.00295 14.271 3.18382C15.1709 3.36469 15.9976 3.81113 16.6464 4.46669C17.2952 5.12225 17.737 5.95748 17.916 6.86677C18.095 7.77605 18.0031 8.71855 17.652 9.57508C17.3009 10.4316 16.7063 11.1637 15.9434 11.6788C15.1805 12.1938 14.2835 12.4688 13.366 12.4688H1.76804C1.46044 12.4688 1.16545 12.3453 0.947942 12.1255C0.730438 11.9057 0.608246 11.6077 0.608246 11.2969C0.608246 10.9861 0.730438 10.688 0.947942 10.4682C1.16545 10.2485 1.46044 10.125 1.76804 10.125H13.366C13.9812 10.125 14.5712 9.87807 15.0062 9.43853C15.4412 8.999 15.6856 8.40285 15.6856 7.78125C15.6856 7.15965 15.4412 6.56351 15.0062 6.12397C14.5712 5.68443 13.9812 5.4375 13.366 5.4375ZM0.608246 20.6719C0.608246 20.3611 0.730438 20.063 0.947942 19.8432C1.16545 19.6235 1.46044 19.5 1.76804 19.5H25.0613C26.4376 19.5 27.7831 19.9124 28.9274 20.685C30.0718 21.4576 30.9637 22.5557 31.4904 23.8405C32.0171 25.1253 32.1549 26.5391 31.8864 27.903C31.6179 29.2669 30.9551 30.5198 29.9819 31.5031C29.0087 32.4864 27.7688 33.1561 26.4189 33.4274C25.0691 33.6987 23.6699 33.5595 22.3983 33.0273C21.1268 32.4951 20.04 31.5939 19.2753 30.4376C18.5107 29.2813 18.1026 27.9219 18.1026 26.5313C18.1026 26.2205 18.2248 25.9224 18.4423 25.7026C18.6598 25.4828 18.9548 25.3594 19.2624 25.3594C19.57 25.3594 19.865 25.4828 20.0825 25.7026C20.3 25.9224 20.4222 26.2205 20.4222 26.5313C20.4222 27.4584 20.6942 28.3646 21.204 29.1355C21.7138 29.9063 22.4383 30.5072 23.286 30.8619C24.1337 31.2167 25.0665 31.3096 25.9664 31.1287C26.8663 30.9478 27.6929 30.5014 28.3417 29.8458C28.9905 29.1903 29.4324 28.355 29.6114 27.4457C29.7904 26.5365 29.6985 25.594 29.3474 24.7374C28.9962 23.8809 28.4016 23.1488 27.6387 22.6337C26.8758 22.1187 25.9789 21.8438 25.0613 21.8438H1.76804C1.46044 21.8438 1.16545 21.7203 0.947942 21.5005C0.730438 21.2807 0.608246 20.9827 0.608246 20.6719Z" fill="#F8F8F8"/>
</svg>
