<svg width="38" height="60" viewBox="0 0 38 60" fill="none" xmlns="http://www.w3.org/2000/svg">
<g clip-path="url(#clip0_533_446)">
<path d="M31.3477 51.6328C32.4609 52.5586 34.0195 52.7695 35.3438 52.1484C36.668 51.5273 37.5 50.2031 37.5 48.75V11.25C37.5 9.79688 36.6562 8.47266 35.3438 7.85157C34.0312 7.23047 32.4727 7.42969 31.3477 8.36719L8.84766 27.1172L7.5 28.2422V11.25C7.5 9.17579 5.82422 7.50001 3.75 7.50001C1.67578 7.50001 0 9.17579 0 11.25V48.75C0 50.8242 1.67578 52.5 3.75 52.5C5.82422 52.5 7.5 50.8242 7.5 48.75V31.7578L8.84766 32.8828L31.3477 51.6328Z" fill="white"/>
</g>
<defs>
<clipPath id="clip0_533_446">
<rect width="37.5" height="60" fill="white"/>
</clipPath>
</defs>
</svg>
