<svg width="151" height="55" viewBox="0 0 151 55" fill="none" xmlns="http://www.w3.org/2000/svg">
<path d="M5.66666 51.4286C5.66666 49.9558 4.47275 48.7619 2.99999 48.7619C1.52723 48.7619 0.333327 49.9558 0.333327 51.4286C0.333327 52.9013 1.52723 54.0952 2.99999 54.0952C4.47275 54.0952 5.66666 52.9013 5.66666 51.4286ZM149.885 1.74166L150.204 1.3569L149.435 0.718274L149.115 1.10303L149.885 1.74166ZM108 51.4286L108 51.9286L108.235 51.9286L108.385 51.7479L108 51.4286ZM149.115 1.10303L107.615 51.1092L108.385 51.7479L149.885 1.74166L149.115 1.10303ZM108 50.9286L2.99999 50.9286L2.99999 51.9286L108 51.9286L108 50.9286Z" fill="#B6B6B6"/>
</svg>
