<svg width="30" height="36" viewBox="0 0 30 36" fill="none" xmlns="http://www.w3.org/2000/svg">
<path fill-rule="evenodd" clip-rule="evenodd" d="M8.07167 4.01586C11.4533 1.95202 13.1433 0.91925 15 0.91925C16.8567 0.91925 18.5467 1.95031 21.9283 4.01586L23.0717 4.71354C26.4533 6.77909 28.1433 7.81186 29.0717 9.51138C30 11.2126 30 13.2747 30 17.4058V18.8012C30 22.9306 30 24.9961 29.0717 26.6956C28.1433 28.3969 26.4533 29.4279 23.0717 31.4918L21.9283 32.1912C18.5467 34.255 16.8567 35.2878 15 35.2878C13.1433 35.2878 11.4533 34.2567 8.07167 32.1912L6.92833 31.4918C3.54667 29.4297 1.85667 28.3952 0.928333 26.6956C-1.19209e-07 24.9944 0 22.9323 0 18.8012V17.4058C0 13.2747 -1.19209e-07 11.2109 0.928333 9.51138C1.85667 7.81014 3.54667 6.77909 6.92833 4.71354L8.07167 4.01586ZM16.6667 24.9772C16.6667 25.433 16.4911 25.8701 16.1785 26.1923C15.866 26.5146 15.442 26.6956 15 26.6956C14.558 26.6956 14.134 26.5146 13.8215 26.1923C13.5089 25.8701 13.3333 25.433 13.3333 24.9772C13.3333 24.5215 13.5089 24.0844 13.8215 23.7621C14.134 23.4398 14.558 23.2588 15 23.2588C15.442 23.2588 15.866 23.4398 16.1785 23.7621C16.4911 24.0844 16.6667 24.5215 16.6667 24.9772ZM15 8.22256C15.3315 8.22256 15.6495 8.35835 15.8839 8.60005C16.1183 8.84175 16.25 9.16957 16.25 9.51138V19.8219C16.25 20.1638 16.1183 20.4916 15.8839 20.7333C15.6495 20.975 15.3315 21.1108 15 21.1108C14.6685 21.1108 14.3505 20.975 14.1161 20.7333C13.8817 20.4916 13.75 20.1638 13.75 19.8219V9.51138C13.75 9.16957 13.8817 8.84175 14.1161 8.60005C14.3505 8.35835 14.6685 8.22256 15 8.22256Z" fill="#F40000"/>
</svg>
