<svg width="30" height="35" viewBox="0 0 30 35" fill="none" xmlns="http://www.w3.org/2000/svg">
<path fill-rule="evenodd" clip-rule="evenodd" d="M8.07167 3.2643C11.4533 1.20047 13.1433 0.167694 15 0.167694C16.8567 0.167694 18.5467 1.19875 21.9283 3.2643L23.0717 3.96198C26.4533 6.02753 28.1433 7.0603 29.0717 8.75983C30 10.4611 30 12.5232 30 16.6543V18.0496C30 22.179 30 24.2446 29.0717 25.9441C28.1433 27.6453 26.4533 28.6764 23.0717 30.7402L21.9283 31.4396C18.5467 33.5034 16.8567 34.5362 15 34.5362C13.1433 34.5362 11.4533 33.5052 8.07167 31.4396L6.92833 30.7402C3.54667 28.6781 1.85667 27.6436 0.928333 25.9441C-1.19209e-07 24.2428 0 22.1807 0 18.0496V16.6543C0 12.5232 -1.19209e-07 10.4594 0.928333 8.75983C1.85667 7.05858 3.54667 6.02753 6.92833 3.96198L8.07167 3.2643ZM16.6667 24.2257C16.6667 24.6814 16.4911 25.1185 16.1785 25.4408C15.866 25.763 15.442 25.9441 15 25.9441C14.558 25.9441 14.134 25.763 13.8215 25.4408C13.5089 25.1185 13.3333 24.6814 13.3333 24.2257C13.3333 23.7699 13.5089 23.3328 13.8215 23.0106C14.134 22.6883 14.558 22.5072 15 22.5072C15.442 22.5072 15.866 22.6883 16.1785 23.0106C16.4911 23.3328 16.6667 23.7699 16.6667 24.2257ZM15 7.47101C15.3315 7.47101 15.6495 7.60679 15.8839 7.84849C16.1183 8.09019 16.25 8.41801 16.25 8.75983V19.0704C16.25 19.4122 16.1183 19.74 15.8839 19.9817C15.6495 20.2234 15.3315 20.3592 15 20.3592C14.6685 20.3592 14.3505 20.2234 14.1161 19.9817C13.8817 19.74 13.75 19.4122 13.75 19.0704V8.75983C13.75 8.41801 13.8817 8.09019 14.1161 7.84849C14.3505 7.60679 14.6685 7.47101 15 7.47101Z" fill="#ED8035"/>
</svg>
