<svg width="31" height="39" viewBox="0 0 31 39" fill="none" xmlns="http://www.w3.org/2000/svg">
<path fill-rule="evenodd" clip-rule="evenodd" d="M20 0.5C20 0.367392 19.9473 0.240215 19.8536 0.146447C19.7598 0.0526785 19.6326 0 19.5 0H5.5C4.04131 0 2.64236 0.579463 1.61091 1.61091C0.579462 2.64236 0 4.04131 0 5.5V33.5C0 34.9587 0.579462 36.3576 1.61091 37.3891C2.64236 38.4205 4.04131 39 5.5 39H25.5C26.9587 39 28.3576 38.4205 29.3891 37.3891C30.4205 36.3576 31 34.9587 31 33.5V13.794C31 13.6614 30.9473 13.5342 30.8536 13.4404C30.7598 13.3467 30.6326 13.294 30.5 13.294H21.5C21.1022 13.294 20.7206 13.136 20.4393 12.8547C20.158 12.5734 20 12.1918 20 11.794V0.5ZM21.5 20C21.8978 20 22.2794 20.158 22.5607 20.4393C22.842 20.7206 23 21.1022 23 21.5C23 21.8978 22.842 22.2794 22.5607 22.5607C22.2794 22.842 21.8978 23 21.5 23H9.5C9.10218 23 8.72064 22.842 8.43934 22.5607C8.15804 22.2794 8 21.8978 8 21.5C8 21.1022 8.15804 20.7206 8.43934 20.4393C8.72064 20.158 9.10218 20 9.5 20H21.5ZM21.5 28C21.8978 28 22.2794 28.158 22.5607 28.4393C22.842 28.7206 23 29.1022 23 29.5C23 29.8978 22.842 30.2794 22.5607 30.5607C22.2794 30.842 21.8978 31 21.5 31H9.5C9.10218 31 8.72064 30.842 8.43934 30.5607C8.15804 30.2794 8 29.8978 8 29.5C8 29.1022 8.15804 28.7206 8.43934 28.4393C8.72064 28.158 9.10218 28 9.5 28H21.5Z" fill="black"/>
</svg>
