<svg width="40" height="40" viewBox="0 0 40 40" fill="none" xmlns="http://www.w3.org/2000/svg">
<path d="M10 24C12.2091 24 14 22.2091 14 20C14 17.7909 12.2091 16 10 16C7.79086 16 6 17.7909 6 20C6 22.2091 7.79086 24 10 24Z" fill="black"/>
<path d="M20 24C22.2091 24 24 22.2091 24 20C24 17.7909 22.2091 16 20 16C17.7909 16 16 17.7909 16 20C16 22.2091 17.7909 24 20 24Z" fill="#A9A9A9"/>
<path d="M30 24C32.2091 24 34 22.2091 34 20C34 17.7909 32.2091 16 30 16C27.7909 16 26 17.7909 26 20C26 22.2091 27.7909 24 30 24Z" fill="#A9A9A9"/>
</svg>
