<svg width="38" height="60" viewBox="0 0 38 60" fill="none" xmlns="http://www.w3.org/2000/svg">
<g clip-path="url(#clip0_533_448)">
<path d="M6.65234 8.36718C5.53906 7.4414 3.98047 7.23046 2.65625 7.85156C1.33203 8.47265 0.5 9.79687 0.5 11.25L0.5 48.75C0.5 50.2031 1.34375 51.5273 2.65625 52.1484C3.96875 52.7695 5.52734 52.5703 6.65234 51.6328L29.1523 32.8828L30.5 31.7578L30.5 48.75C30.5 50.8242 32.1758 52.5 34.25 52.5C36.3242 52.5 38 50.8242 38 48.75L38 11.25C38 9.17578 36.3242 7.5 34.25 7.5C32.1758 7.5 30.5 9.17578 30.5 11.25L30.5 28.2422L29.1523 27.1172L6.65234 8.36718Z" fill="white"/>
</g>
<defs>
<clipPath id="clip0_533_448">
<rect width="37.5" height="60" fill="white" transform="matrix(-1 0 0 -1 38 60)"/>
</clipPath>
</defs>
</svg>
