<svg width="64" height="66" viewBox="0 0 64 66" fill="none" xmlns="http://www.w3.org/2000/svg">
<path d="M32 9.81624C31.1758 9.81624 30.4844 9.53376 29.9258 8.96879C29.3673 8.40383 29.089 7.70547 29.0909 6.87371V3.93119C29.0909 3.09747 29.3702 2.39813 29.9287 1.83316C30.4873 1.2682 31.1777 0.986696 32 0.988658C32.8242 0.988658 33.5156 1.27114 34.0742 1.83611C34.6327 2.40107 34.911 3.09943 34.9091 3.93119V6.87371C34.9091 7.70743 34.6298 8.40677 34.0713 8.97174C33.5127 9.5367 32.8223 9.8182 32 9.81624ZM32 65.7243C31.1758 65.7243 30.4844 65.4418 29.9258 64.8768C29.3673 64.3119 29.089 63.6135 29.0909 62.7817V59.8392C29.0909 59.0055 29.3702 58.3062 29.9287 57.7412C30.4873 57.1762 31.1777 56.8947 32 56.8967C32.8242 56.8967 33.5156 57.1792 34.0742 57.7441C34.6327 58.3091 34.911 59.0075 34.9091 59.8392V62.7817C34.9091 63.6155 34.6298 64.3148 34.0713 64.8798C33.5127 65.4447 32.8223 65.7262 32 65.7243ZM58.1818 36.299C57.3576 36.299 56.6662 36.0165 56.1076 35.4515C55.5491 34.8866 55.2708 34.1882 55.2727 33.3565C55.2727 32.5227 55.552 31.8234 56.1105 31.2584C56.6691 30.6935 57.3595 30.412 58.1818 30.4139H61.0909C61.9151 30.4139 62.6065 30.6964 63.1651 31.2614C63.7236 31.8263 64.0019 32.5247 64 33.3565C64 34.1902 63.7207 34.8895 63.1622 35.4545C62.6036 36.0195 61.9132 36.301 61.0909 36.299H58.1818ZM2.9091 36.299C2.08486 36.299 1.39346 36.0165 0.834919 35.4515C0.276373 34.8866 -0.00192933 34.1882 1.00661e-05 33.3565C1.00661e-05 32.5227 0.279283 31.8234 0.837828 31.2584C1.39637 30.6935 2.0868 30.412 2.9091 30.4139H5.81819C6.64243 30.4139 7.33383 30.6964 7.89237 31.2614C8.45092 31.8263 8.72922 32.5247 8.72728 33.3565C8.72728 34.1902 8.44801 34.8895 7.88946 35.4545C7.33092 36.0195 6.64049 36.301 5.81819 36.299H2.9091ZM49.4545 15.7013C48.9212 15.1618 48.6545 14.487 48.6545 13.6768C48.6545 12.8667 48.9212 12.1683 49.4545 11.5818L50.4727 10.4783C51.0061 9.8898 51.6848 9.59555 52.5091 9.59555C53.3333 9.59555 54.0364 9.8898 54.6182 10.4783C55.2 11.0668 55.4909 11.7779 55.4909 12.6116C55.4909 13.4454 55.2 14.1565 54.6182 14.745L53.5273 15.7749C52.9454 16.3143 52.2667 16.5841 51.4909 16.5841C50.7151 16.5841 50.0364 16.2898 49.4545 15.7013ZM9.38182 56.2346C8.80001 55.6461 8.5091 54.935 8.5091 54.1013C8.5091 53.2676 8.80001 52.5565 9.38182 51.968L10.4727 50.9381C11.0546 50.3986 11.7333 50.1289 12.5091 50.1289C13.2849 50.1289 13.9636 50.4231 14.5455 51.0116C15.0788 51.5511 15.3581 52.2377 15.3833 53.0714C15.4085 53.9051 15.1292 54.5917 14.5455 55.1312L13.5273 56.2346C12.9939 56.8231 12.3152 57.1174 11.4909 57.1174C10.6667 57.1174 9.96364 56.8231 9.38182 56.2346ZM50.4 56.2346L49.3818 55.1312C48.8485 54.5427 48.5818 53.8561 48.5818 53.0714C48.5818 52.2867 48.8727 51.6001 49.4545 51.0116C49.9879 50.4722 50.6667 50.1907 51.4909 50.1671C52.3151 50.1436 52.9939 50.4251 53.5273 51.0116L54.6182 52.0415C55.2 52.581 55.4909 53.2676 55.4909 54.1013C55.4909 54.935 55.2 55.6461 54.6182 56.2346C54.0364 56.8231 53.3333 57.1174 52.5091 57.1174C51.6848 57.1174 50.9818 56.8231 50.4 56.2346ZM10.4727 15.7013L9.38182 14.6714C8.80001 14.1319 8.5091 13.4454 8.5091 12.6116C8.5091 11.7779 8.80001 11.0668 9.38182 10.4783C9.96364 9.8898 10.6667 9.59555 11.4909 9.59555C12.3152 9.59555 13.0182 9.8898 13.6 10.4783L14.6182 11.5818C15.1515 12.1703 15.4182 12.8569 15.4182 13.6415C15.4182 14.4262 15.1273 15.1128 14.5455 15.7013C14.0121 16.2408 13.3459 16.5105 12.5469 16.5105C11.7479 16.5105 11.0565 16.2408 10.4727 15.7013ZM32 51.0116C27.1515 51.0116 23.0303 49.2952 19.6364 45.8622C16.2424 42.4293 14.5455 38.2607 14.5455 33.3565C14.5455 28.4523 16.2424 24.2837 19.6364 20.8507C23.0303 17.4178 27.1515 15.7013 32 15.7013C36.8485 15.7013 40.9697 17.4178 44.3636 20.8507C47.7576 24.2837 49.4545 28.4523 49.4545 33.3565C49.4545 38.2607 47.7576 42.4293 44.3636 45.8622C40.9697 49.2952 36.8485 51.0116 32 51.0116Z" fill="#FFC700"/>
</svg>
