<svg width="28" height="28" viewBox="0 0 28 28" fill="none" xmlns="http://www.w3.org/2000/svg">
<path d="M23.9979 9.99856C22.9674 10.026 21.968 9.64407 21.2185 8.93634C20.469 8.2286 20.0304 7.25273 19.9987 6.22235C20.0174 5.48669 20.2437 4.7713 20.6516 4.15879L23.1681 0.41458C23.2647 0.285843 23.3901 0.181367 23.5341 0.109413C23.6781 0.0374584 23.8369 0 23.9979 0C24.1589 0 24.3177 0.0374584 24.4617 0.109413C24.6057 0.181367 24.731 0.285843 24.8277 0.41458L27.3122 4.1098C27.7368 4.73448 27.9744 5.46735 27.997 6.22235C27.9654 7.25273 27.5268 8.2286 26.7773 8.93634C26.0278 9.64407 25.0284 10.026 23.9979 9.99856ZM23.9979 2.76308L22.3422 5.22557C22.1353 5.51846 22.016 5.86419 21.9983 6.22235C22.0563 6.71192 22.292 7.16319 22.6605 7.49063C23.029 7.81807 23.5049 7.99892 23.9979 7.99892C24.4909 7.99892 24.9667 7.81807 25.3353 7.49063C25.7038 7.16319 25.9394 6.71192 25.9975 6.22235C25.9751 5.84478 25.845 5.48152 25.6225 5.17558L23.9979 2.76308ZM21.4984 27.9948H6.50158C4.89097 27.9965 3.33718 27.3997 2.14184 26.3202C0.946505 25.2408 0.1949 23.7557 0.0329364 22.1532C-0.129027 20.5508 0.310207 18.9453 1.26537 17.6485C2.22053 16.3517 3.62348 15.4561 5.20185 15.1355C5.62787 13.1177 6.73452 11.3077 8.33632 10.0087C9.93813 8.70981 11.9377 8.00095 14 8.00095C16.0623 8.00095 18.0619 8.70981 19.6637 10.0087C21.2655 11.3077 22.3721 13.1177 22.7981 15.1355C24.3765 15.4561 25.7795 16.3517 26.7346 17.6485C27.6898 18.9453 28.129 20.5508 27.9671 22.1532C27.8051 23.7557 27.0535 25.2408 25.8582 26.3202C24.6628 27.3997 23.109 27.9965 21.4984 27.9948ZM14 9.99856C12.293 10.0002 10.6455 10.6256 9.36748 11.757C8.08942 12.8885 7.26895 14.4481 7.06046 16.1423L6.96048 16.9541L6.14566 17.0181C4.98515 17.1064 3.90416 17.6415 3.1301 18.5106C2.35605 19.3798 1.94929 20.5153 1.9954 21.6782C2.04151 22.8412 2.53689 23.9409 3.37733 24.7461C4.21776 25.5512 5.33772 25.999 6.50158 25.9952H21.4984C22.6623 25.999 23.7822 25.5512 24.6227 24.7461C25.4631 23.9409 25.9585 22.8412 26.0046 21.6782C26.0507 20.5153 25.6439 19.3798 24.8699 18.5106C24.0958 17.6415 23.0148 17.1064 21.8543 17.0181L21.0395 16.9541L20.9405 16.1423C20.7316 14.4481 19.9109 12.8886 18.6327 11.7572C17.3545 10.6258 15.707 10.0004 14 9.99856Z" fill="#F8F8F8"/>
</svg>
