<svg width="20" height="24" viewBox="0 0 20 24" fill="none" xmlns="http://www.w3.org/2000/svg">
<path d="M10 0C12.6522 0 15.1957 1.05357 17.0711 2.92893C18.9464 4.8043 20 7.34784 20 10C20 14.14 16.8444 18.4778 10.6667 23.1111C10.4743 23.2554 10.2404 23.3333 10 23.3333C9.75959 23.3333 9.52566 23.2554 9.33333 23.1111C3.15556 18.4778 0 14.14 0 10C0 7.34784 1.05357 4.8043 2.92893 2.92893C4.8043 1.05357 7.34784 0 10 0ZM10 2.22222C7.93721 2.22222 5.9589 3.04166 4.50028 4.50028C3.04166 5.9589 2.22222 7.93721 2.22222 10C2.22222 13.0111 4.57556 16.4844 9.38667 20.34L10 20.8244L10.6133 20.34C15.4244 16.4844 17.7778 13.0111 17.7778 10C17.7778 7.93721 16.9583 5.9589 15.4997 4.50028C14.0411 3.04166 12.0628 2.22222 10 2.22222ZM10 7.77778C10.5894 7.77778 11.1546 8.0119 11.5713 8.42865C11.9881 8.8454 12.2222 9.41063 12.2222 10C12.2222 10.5894 11.9881 11.1546 11.5713 11.5713C11.1546 11.9881 10.5894 12.2222 10 12.2222C9.41063 12.2222 8.8454 11.9881 8.42865 11.5713C8.0119 11.1546 7.77778 10.5894 7.77778 10C7.77778 9.41063 8.0119 8.8454 8.42865 8.42865C8.8454 8.0119 9.41063 7.77778 10 7.77778Z" fill="#F8F8F8"/>
</svg>
