<svg width="28" height="28" viewBox="0 0 28 28" fill="none" xmlns="http://www.w3.org/2000/svg">
<path d="M0 12.64C0 14.1333 0.44 15.4533 1.30667 16.6267C2.17333 17.7867 3.30667 18.5867 4.70667 19.0133C4.82667 19.04 4.93333 19 5.02667 18.9067L6.57333 17C5.38667 17 4.37333 16.5733 3.53333 15.72C2.69333 14.8667 2.26667 13.84 2.26667 12.64C2.26667 11.52 2.64 10.5333 3.38667 9.70667C4.13333 8.88 5.06667 8.41333 6.18667 8.32L6.89333 8.22667C7.04 8.22667 7.10667 8.17333 7.10667 8.05333L7.21333 7.32C7.37333 5.85333 8 4.64 9.06667 3.68C10.1333 2.72 11.4 2.24 12.8667 2.24C14.3333 2.24 15.6133 2.72 16.6933 3.69333C17.7867 4.66667 18.3867 5.88 18.52 7.32L18.6133 8.09333C18.64 8.24 18.7467 8.32 18.9067 8.32H21.0667C22.2667 8.32 23.2933 8.74667 24.1333 9.58667C24.9733 10.4267 25.4 11.44 25.4 12.64C25.4 13.7467 25.0267 14.72 24.28 15.5467C23.5333 16.3733 22.6133 16.8533 21.52 16.9867C21.36 16.9867 21.1467 17.0133 20.8667 17.0667C20.6133 17.0933 20.4267 17.1867 20.32 17.3733L17.1733 21.0933C17.0795 21.2098 17.0118 21.3451 16.975 21.4901C16.9382 21.635 16.9331 21.7862 16.96 21.9333C17 22.2533 17.1467 22.5067 17.3733 22.6933C17.52 22.8533 17.76 22.9467 18.12 22.9467C18.4667 22.9467 18.7467 22.7867 18.9333 22.48L21.76 19.2267C23.4133 19.0533 24.8133 18.3467 25.96 17.08C27.1067 15.8133 27.6667 14.3333 27.6667 12.64C27.6667 11.7467 27.4933 10.88 27.1467 10.0667C26.8199 9.28091 26.3445 8.56561 25.7467 7.96C25.1411 7.36214 24.4258 6.88678 23.64 6.56C22.8267 6.2129 21.9509 6.03593 21.0667 6.04H20.64C20.2 4.28 19.2533 2.82667 17.8133 1.69333C16.3733 0.560001 14.72 0 12.8533 0C11.6133 0 10.44 0.266667 9.34667 0.800001C8.25333 1.33333 7.33333 2.06667 6.57333 3.01333C5.81333 3.96 5.32 5.04 5.06667 6.24C3.57333 6.57333 2.34667 7.33333 1.4 8.53333C0.466666 9.72 0 11.0933 0 12.64ZM4.50667 23.3333C4.50667 23.4133 4.53333 23.5467 4.58667 23.7333C4.70667 24.0133 4.89333 24.2133 5.17333 24.32C5.46667 24.4533 5.76 24.4667 6.06667 24.3467C6.20657 24.2976 6.334 24.2185 6.43997 24.1148C6.54595 24.0111 6.62788 23.8855 6.68 23.7467C6.81333 23.4533 6.82667 23.1733 6.70667 22.88C6.65387 22.7446 6.57135 22.6228 6.46519 22.5236C6.35904 22.4244 6.23196 22.3502 6.09333 22.3067C5.96131 22.2349 5.81472 22.194 5.6646 22.187C5.51448 22.1801 5.36474 22.2073 5.22667 22.2667C5.08794 22.3251 4.96225 22.4107 4.85694 22.5183C4.75163 22.6259 4.66882 22.7534 4.61333 22.8933C4.54369 23.0296 4.50714 23.1803 4.50667 23.3333ZM6.97333 20.08V20.2133C7 20.52 7.13333 20.76 7.37333 20.96C7.68 21.1333 7.94667 21.2133 8.2 21.2133C8.49333 21.2133 8.77333 21.0667 9.01333 20.7733L12.1067 17.08C12.2933 16.8533 12.3867 16.56 12.3733 16.2C12.3459 15.9248 12.2119 15.6712 12 15.4933C11.7867 15.3067 11.56 15.2 11.3067 15.2C11.2267 15.2 11.1733 15.2 11.12 15.2133C10.8133 15.2667 10.56 15.4133 10.3733 15.6533L7.22667 19.3467C7.05333 19.56 6.97333 19.8 6.97333 20.08ZM8 26.3733C8 26.5333 8.04 26.68 8.10667 26.8C8.21333 27.08 8.41333 27.2933 8.69333 27.4267C8.84 27.4933 8.98667 27.52 9.13333 27.52C9.29333 27.52 9.44 27.4933 9.54667 27.4267C9.85333 27.3067 10.0667 27.12 10.1733 26.88C10.3067 26.5867 10.32 26.2933 10.2 25.9867C10.1552 25.8445 10.0775 25.7149 9.97324 25.6083C9.86901 25.5018 9.74114 25.4213 9.6 25.3733C9.4613 25.3065 9.31008 25.2695 9.15617 25.2649C9.00226 25.2603 8.84911 25.2882 8.70667 25.3467C8.4 25.4667 8.2 25.6667 8.10667 25.9467C8.02667 26.0667 8 26.2133 8 26.3733ZM10.2267 23.24V23.3867C10.2533 23.68 10.4 23.92 10.64 24.12C10.88 24.32 11.1333 24.4133 11.3733 24.4133C11.68 24.4133 11.9467 24.2667 12.2133 23.9733L18.0133 16.9867C18.16 16.8267 18.24 16.5867 18.24 16.2933V16.1333C18.2133 15.8267 18.08 15.6 17.88 15.4267C17.68 15.2533 17.44 15.16 17.1867 15.16H17.0133C16.7067 15.1733 16.4533 15.32 16.28 15.5733L10.48 22.5067C10.2933 22.7467 10.2267 22.9867 10.2267 23.24ZM14.9067 24.7733C14.9067 24.8933 14.9333 25.0267 14.9867 25.1733C15.1067 25.4667 15.3067 25.68 15.6 25.8C15.7867 25.8533 15.92 25.88 16.0133 25.88C16.2 25.88 16.36 25.84 16.4667 25.7733C16.76 25.6533 16.9733 25.4667 17.08 25.2133C17.2133 24.9867 17.2267 24.6933 17.1067 24.32C17.0556 24.1865 16.9769 24.0652 16.8759 23.9641C16.7748 23.8631 16.6535 23.7844 16.52 23.7333L16.04 23.6133C15.92 23.64 15.7867 23.6667 15.6133 23.7067C15.32 23.8133 15.12 24.0133 15.0133 24.2933C14.9467 24.4667 14.9067 24.6267 14.9067 24.7733Z" fill="#F8F8F8"/>
</svg>
