<svg width="42" height="38" viewBox="0 0 42 38" fill="none" xmlns="http://www.w3.org/2000/svg">
<path fill-rule="evenodd" clip-rule="evenodd" d="M17.4449 0C13.8732 0 10.6964 1.7039 8.6867 4.345C8.2478 4.2625 7.7946 4.2207 7.3326 4.2207C3.2835 4.2207 0 7.5053 0 11.5533C0 15.6013 3.2835 18.8892 7.3326 18.8892C8.0751 18.8892 8.7912 18.7781 9.4666 18.5724C11.4719 20.6822 14.3077 22 17.4449 22C19.2016 22 20.8604 21.5875 22.3333 20.8549C23.8062 21.5875 25.4661 22 27.2217 22C30.8374 22 34.0472 20.251 36.0525 17.5549C39.3415 17.5274 41.9991 14.8478 41.9991 11.5533C41.9991 8.5162 39.7408 6.006 36.8126 5.61C34.9261 2.2616 31.3368 0 27.2217 0C25.465 0 23.8062 0.411396 22.3333 1.144C20.8604 0.411396 19.2016 0 17.4449 0Z" fill="url(#paint0_linear_507_288)"/>
<path fill-rule="evenodd" clip-rule="evenodd" d="M17.2231 0.86924C14.0894 0.86924 11.2625 2.3911 9.51045 4.69346C9.50995 4.6941 9.50945 4.69475 9.50895 4.69539C9.20435 5.09625 8.71782 5.28396 8.22289 5.19168C7.86433 5.12476 7.49219 5.09049 7.11 5.09049C3.91138 5.09049 1.0918 7.91008 1.0918 11.1087C1.0918 11.5299 1.12329 11.6728 1.11221 11.4965C1.15841 12.231 1.44634 12.9295 1.93111 13.4832C2.41588 14.0369 3.07024 14.4147 3.79217 14.5576C7.31997 15.2554 12.1015 14.9399 17.7854 13.5293C22.3719 12.3911 27.3105 10.651 32.2115 8.68998C32.7517 8.47372 33.226 8.11982 33.587 7.66345C33.9481 7.20709 34.1834 6.66416 34.2696 6.08865C34.3558 5.51315 34.2898 4.92511 34.0783 4.383C33.8667 3.84088 33.517 3.36359 33.0638 2.99856C31.417 1.67257 29.2835 0.86924 26.9994 0.86924C25.4647 0.86924 23.9838 1.23414 22.6961 1.87471C22.3252 2.05919 21.8973 2.05919 21.5264 1.87471C20.2387 1.23414 18.7578 0.86924 17.2231 0.86924Z" fill="url(#paint1_linear_507_288)"/>
<path fill-rule="evenodd" clip-rule="evenodd" d="M14.2945 19C11.1559 23.5399 7.97685 24.9734 7.32219 26.107C6.66694 27.2424 7.01711 29.0729 8.31824 29.8242C9.61878 30.5749 11.4674 29.8113 12.0348 28.8281C12.5987 27.852 12.1227 24.0979 14.2945 19Z" fill="#008080"/>
<path fill-rule="evenodd" clip-rule="evenodd" d="M11.9273 22.3932C11.8572 22.3956 11.7907 22.4245 11.7412 22.4741C10.941 23.2766 10.0908 24.0279 9.20095 24.7244C9.19804 24.7267 9.19518 24.7291 9.19237 24.7315C8.58264 25.2498 7.96196 25.6471 7.55725 26.2344C7.55161 26.2426 7.54641 26.2511 7.54169 26.2599C7.28557 26.7341 7.19924 27.3091 7.31582 27.8262C7.32031 27.8462 7.32703 27.8656 7.33583 27.8842C7.38598 27.9895 7.45842 28.0663 7.54615 28.1225C7.63389 28.1788 7.74948 28.2369 7.91316 28.1766C7.9234 28.1728 7.93341 28.1684 7.94313 28.1635C7.9443 28.1629 7.94545 28.1623 7.94667 28.1617L7.91625 28.1744C8.58917 27.9389 9.08181 27.3501 9.59964 26.7557C9.60186 26.7531 9.60403 26.7506 9.60615 26.7479C10.5961 25.5233 11.4287 24.1885 12.1797 22.8007C12.2028 22.7579 12.2142 22.7098 12.2128 22.6612C12.2113 22.6126 12.1971 22.5652 12.1715 22.5239C12.1459 22.4825 12.1098 22.4487 12.0669 22.4257C12.024 22.4028 11.9759 22.3916 11.9273 22.3932Z" fill="url(#paint2_linear_507_288)"/>
<path fill-rule="evenodd" clip-rule="evenodd" d="M11.6232 26.4677C11.2865 26.5515 11.2431 27.0017 11.0224 27.2272C10.6441 27.8467 10.1393 28.3802 9.61408 28.8592C9.44661 29.1356 9.81024 29.4248 10.0679 29.2603C10.8648 29.0296 11.7526 28.4856 11.8381 27.5791C11.8451 27.2541 12.0448 26.8934 11.8943 26.5866C11.8351 26.5011 11.7262 26.4548 11.6232 26.4677Z" fill="url(#paint3_linear_507_288)"/>
<path fill-rule="evenodd" clip-rule="evenodd" d="M22.7608 23.7628C19.6222 28.3027 16.4432 29.7362 15.7885 30.8698C15.1332 32.0053 15.4834 33.8357 16.7845 34.587C18.0851 35.3377 19.9337 34.5741 20.5011 33.591C21.065 32.6148 20.589 28.8608 22.7608 23.7628Z" fill="#008080"/>
<path fill-rule="evenodd" clip-rule="evenodd" d="M20.3936 27.1561C20.3235 27.1585 20.257 27.1874 20.2075 27.237C19.4073 28.0395 18.5571 28.7908 17.6673 29.4873C17.6644 29.4896 17.6615 29.4919 17.6587 29.4944C17.0489 30.0127 16.4283 30.4099 16.0236 30.9973C16.0179 31.0055 16.0127 31.014 16.008 31.0228C15.7519 31.497 15.6656 32.0719 15.7821 32.5891C15.7866 32.6091 15.7933 32.6285 15.8021 32.647C15.8523 32.7524 15.9247 32.8291 16.0125 32.8854C16.1002 32.9416 16.2158 32.9997 16.3795 32.9395C16.3897 32.9357 16.3997 32.9313 16.4094 32.9263C16.4106 32.9257 16.4118 32.9252 16.413 32.9246L16.3826 32.9373C17.0555 32.7018 17.5481 32.1129 18.0659 31.5186C18.0682 31.516 18.0703 31.5134 18.0725 31.5108C19.0625 30.2862 19.895 28.9513 20.646 27.5636C20.6691 27.5208 20.6805 27.4727 20.6791 27.4241C20.6777 27.3755 20.6634 27.3281 20.6378 27.2867C20.6122 27.2454 20.5761 27.2115 20.5332 27.1886C20.4904 27.1657 20.4422 27.1545 20.3936 27.1561Z" fill="url(#paint4_linear_507_288)"/>
<path fill-rule="evenodd" clip-rule="evenodd" d="M20.0895 31.2306C19.7528 31.3143 19.7094 31.7646 19.4887 31.99C19.1104 32.6096 18.6056 33.143 18.0804 33.622C17.9129 33.8984 18.2766 34.1877 18.5342 34.0231C19.3312 33.7924 20.2189 33.2484 20.3044 32.342C20.3114 32.017 20.5111 31.6563 20.3606 31.3494C20.3014 31.2639 20.1925 31.2177 20.0895 31.2306Z" fill="url(#paint5_linear_507_288)"/>
<path fill-rule="evenodd" clip-rule="evenodd" d="M34.0046 25.8791C30.866 30.419 27.6869 31.8524 27.0323 32.9861C26.377 34.1215 26.7272 35.952 28.0283 36.7032C29.3289 37.4539 31.1775 36.6904 31.7449 35.7072C32.3088 34.7311 31.8327 30.977 34.0046 25.8791Z" fill="#008080"/>
<path fill-rule="evenodd" clip-rule="evenodd" d="M31.6373 29.2723C31.5673 29.2747 31.5008 29.3036 31.4513 29.3532C30.6511 30.1557 29.8008 30.907 28.911 31.6035C28.9081 31.6058 28.9053 31.6082 28.9025 31.6106C28.2927 32.1289 27.672 32.5261 27.2673 33.1135C27.2617 33.1217 27.2565 33.1302 27.2518 33.139C26.9956 33.6132 26.9093 34.1881 27.0259 34.7053C27.0304 34.7253 27.0371 34.7447 27.0459 34.7633C27.0961 34.8686 27.1685 34.9453 27.2562 35.0016C27.344 35.0579 27.4596 35.116 27.6232 35.0557C27.6335 35.0519 27.6435 35.0475 27.6532 35.0425C27.6544 35.0419 27.6555 35.0414 27.6568 35.0408L27.6263 35.0535C28.2992 34.818 28.7919 34.2292 29.3097 33.6348C29.3119 33.6322 29.3141 33.6296 29.3162 33.627C30.3062 32.4024 31.1387 31.0675 31.8898 29.6798C31.9129 29.637 31.9243 29.5889 31.9229 29.5403C31.9214 29.4917 31.9072 29.4443 31.8816 29.403C31.856 29.3616 31.8199 29.3278 31.777 29.3048C31.7341 29.2819 31.686 29.2707 31.6373 29.2723Z" fill="url(#paint6_linear_507_288)"/>
<path fill-rule="evenodd" clip-rule="evenodd" d="M31.3332 33.3468C30.9965 33.4305 30.9532 33.8808 30.7324 34.1063C30.3542 34.7258 29.8494 35.2592 29.3242 35.7382C29.1567 36.0146 29.5203 36.3039 29.778 36.1394C30.5749 35.9086 31.4626 35.3646 31.5481 34.4582C31.5552 34.1332 31.7548 33.7725 31.6044 33.4657C31.5452 33.3802 31.4363 33.3339 31.3332 33.3468Z" fill="url(#paint7_linear_507_288)"/>
<path fill-rule="evenodd" clip-rule="evenodd" d="M13.176 31.1702C11.4552 33.6591 9.71232 34.445 9.3534 35.0666C8.99416 35.6891 9.18614 36.6926 9.89948 37.1045C10.6125 37.5161 11.626 37.0975 11.9371 36.5584C12.2463 36.0233 11.9853 33.9651 13.176 31.1702Z" fill="#008080"/>
<path fill-rule="evenodd" clip-rule="evenodd" d="M11.8781 33.0305C11.8397 33.0318 11.8032 33.0477 11.7761 33.0748C11.3374 33.5148 10.8712 33.9267 10.3834 34.3086C10.3818 34.3098 10.3802 34.3111 10.3787 34.3125C10.0444 34.5966 9.70413 34.8144 9.48225 35.1364C9.47916 35.1409 9.47631 35.1456 9.47372 35.1504C9.3333 35.4104 9.28597 35.7256 9.34989 36.0091C9.35235 36.0201 9.35603 36.0308 9.36086 36.0409C9.38835 36.0987 9.42807 36.1407 9.47617 36.1716C9.52427 36.2024 9.58764 36.2343 9.67738 36.2012C9.68299 36.1992 9.68848 36.1968 9.69381 36.194C9.69445 36.1937 9.69508 36.1934 9.69575 36.1931L9.67907 36.2001C10.048 36.0709 10.3181 35.7481 10.602 35.4222C10.6032 35.4208 10.6044 35.4194 10.6056 35.418C11.1483 34.7466 11.6047 34.0147 12.0165 33.2539C12.0292 33.2305 12.0354 33.2041 12.0346 33.1774C12.0339 33.1508 12.0261 33.1248 12.012 33.1021C11.998 33.0795 11.9782 33.0609 11.9547 33.0483C11.9312 33.0357 11.9048 33.0296 11.8781 33.0305Z" fill="url(#paint8_linear_507_288)"/>
<path fill-rule="evenodd" clip-rule="evenodd" d="M11.7115 35.2643C11.5269 35.3102 11.5031 35.5571 11.3821 35.6807C11.1747 36.0204 10.898 36.3128 10.61 36.5754C10.5182 36.727 10.7175 36.8856 10.8588 36.7954C11.2957 36.6689 11.7824 36.3706 11.8293 35.8737C11.8331 35.6955 11.9426 35.4977 11.8601 35.3295C11.8277 35.2826 11.768 35.2573 11.7115 35.2643Z" fill="url(#paint9_linear_507_288)"/>
<path fill-rule="evenodd" clip-rule="evenodd" d="M30.566 20.6078C28.1104 24.1597 25.6232 25.2812 25.111 26.1682C24.5983 27.0565 24.8723 28.4886 25.8902 29.0764C26.9078 29.6637 28.3541 29.0663 28.798 28.2971C29.2392 27.5334 28.8667 24.5963 30.566 20.6078Z" fill="#008080"/>
<path fill-rule="evenodd" clip-rule="evenodd" d="M28.7137 23.2626C28.659 23.2645 28.6069 23.2871 28.5682 23.3259C27.9421 23.9538 27.2769 24.5416 26.5807 25.0865C26.5785 25.0883 26.5762 25.0901 26.574 25.092C26.097 25.4975 25.6114 25.8084 25.2947 26.2679C25.2903 26.2743 25.2863 26.281 25.2826 26.2878C25.0822 26.6588 25.0147 27.1087 25.1059 27.5132C25.1094 27.5289 25.1146 27.5441 25.1215 27.5586C25.1607 27.641 25.2174 27.7011 25.2861 27.7451C25.3547 27.7891 25.4451 27.8346 25.5732 27.7874C25.5812 27.7845 25.589 27.781 25.5966 27.7771C25.5976 27.7767 25.5985 27.7763 25.5994 27.7758L25.5756 27.7857C26.1021 27.6015 26.4875 27.1407 26.8927 26.6757C26.8944 26.6737 26.8961 26.6717 26.8978 26.6696C27.6723 25.7115 28.3236 24.6672 28.9112 23.5814C28.9293 23.548 28.9383 23.5103 28.9371 23.4723C28.936 23.4342 28.9249 23.3972 28.9048 23.3648C28.8848 23.3325 28.8566 23.306 28.823 23.2881C28.7895 23.2701 28.7518 23.2613 28.7137 23.2626Z" fill="url(#paint10_linear_507_288)"/>
<path fill-rule="evenodd" clip-rule="evenodd" d="M28.476 26.4504C28.2126 26.5159 28.1787 26.8682 28.0059 27.0446C27.71 27.5293 27.3151 27.9467 26.9041 28.3214C26.7731 28.5377 27.0576 28.764 27.2592 28.6352C27.8827 28.4547 28.5772 28.0291 28.6441 27.3199C28.6496 27.0657 28.8058 26.7835 28.6881 26.5434C28.6418 26.4765 28.5566 26.4403 28.476 26.4504Z" fill="url(#paint11_linear_507_288)"/>
<defs>
<linearGradient id="paint0_linear_507_288" x1="20.222" y1="3.33113" x2="20.9997" y2="18.2207" gradientUnits="userSpaceOnUse">
<stop stop-color="#96BEFF"/>
<stop offset="1" stop-color="#09719F"/>
</linearGradient>
<linearGradient id="paint1_linear_507_288" x1="14.6663" y1="-2.00179" x2="17.6968" y2="13.5544" gradientUnits="userSpaceOnUse">
<stop stop-color="white"/>
<stop offset="1" stop-color="white" stop-opacity="0"/>
</linearGradient>
<linearGradient id="paint2_linear_507_288" x1="8.35221" y1="22.3927" x2="9.02971" y2="28.2027" gradientUnits="userSpaceOnUse">
<stop stop-color="white"/>
<stop offset="1" stop-color="white" stop-opacity="0"/>
</linearGradient>
<linearGradient id="paint3_linear_507_288" x1="9.5713" y1="26.4658" x2="12.9067" y2="30.3569" gradientUnits="userSpaceOnUse">
<stop stop-color="#008080" stop-opacity="0.65441"/>
<stop offset="1" stop-color="#003434" stop-opacity="0.71324"/>
</linearGradient>
<linearGradient id="paint4_linear_507_288" x1="16.8185" y1="27.1556" x2="17.496" y2="32.9656" gradientUnits="userSpaceOnUse">
<stop stop-color="white"/>
<stop offset="1" stop-color="white" stop-opacity="0"/>
</linearGradient>
<linearGradient id="paint5_linear_507_288" x1="18.0376" y1="31.2287" x2="21.373" y2="35.1198" gradientUnits="userSpaceOnUse">
<stop stop-color="#008080" stop-opacity="0.65441"/>
<stop offset="1" stop-color="#003434" stop-opacity="0.71324"/>
</linearGradient>
<linearGradient id="paint6_linear_507_288" x1="28.0623" y1="29.2718" x2="28.7398" y2="35.0818" gradientUnits="userSpaceOnUse">
<stop stop-color="white"/>
<stop offset="1" stop-color="white" stop-opacity="0"/>
</linearGradient>
<linearGradient id="paint7_linear_507_288" x1="29.2814" y1="33.3449" x2="32.6168" y2="37.236" gradientUnits="userSpaceOnUse">
<stop stop-color="#008080" stop-opacity="0.65441"/>
<stop offset="1" stop-color="#003434" stop-opacity="0.71324"/>
</linearGradient>
<linearGradient id="paint8_linear_507_288" x1="9.91809" y1="33.0302" x2="10.2895" y2="36.2156" gradientUnits="userSpaceOnUse">
<stop stop-color="white"/>
<stop offset="1" stop-color="white" stop-opacity="0"/>
</linearGradient>
<linearGradient id="paint9_linear_507_288" x1="10.5865" y1="35.2633" x2="12.4152" y2="37.3966" gradientUnits="userSpaceOnUse">
<stop stop-color="#008080" stop-opacity="0.65441"/>
<stop offset="1" stop-color="#003434" stop-opacity="0.71324"/>
</linearGradient>
<linearGradient id="paint10_linear_507_288" x1="25.9167" y1="23.2622" x2="26.4468" y2="27.8078" gradientUnits="userSpaceOnUse">
<stop stop-color="white"/>
<stop offset="1" stop-color="white" stop-opacity="0"/>
</linearGradient>
<linearGradient id="paint11_linear_507_288" x1="26.8707" y1="26.4489" x2="29.4802" y2="29.4932" gradientUnits="userSpaceOnUse">
<stop stop-color="#008080" stop-opacity="0.65441"/>
<stop offset="1" stop-color="#003434" stop-opacity="0.71324"/>
</linearGradient>
</defs>
</svg>
