<svg width="10" height="16" viewBox="0 0 10 16" fill="none" xmlns="http://www.w3.org/2000/svg">
<path d="M9.74154 7.43289L0.271008 0.035878C0.246262 0.0163953 0.216521 0.0042877 0.185203 0.000945491C0.153885 -0.00239672 0.12226 0.00316203 0.0939589 0.0169835C0.0656578 0.0308049 0.0418294 0.0523285 0.0252095 0.0790822C0.0085896 0.105836 -0.000147504 0.136735 1.88408e-06 0.16823V1.79217C1.88408e-06 1.89511 0.048321 1.99385 0.128152 2.05687L7.69113 7.9623L0.128152 13.8677C0.0462202 13.9307 1.88408e-06 14.0295 1.88408e-06 14.1324V15.7564C1.88408e-06 15.8971 0.161765 15.9749 0.271008 15.8887L9.74154 8.49171C9.82203 8.42892 9.88715 8.3486 9.93193 8.25686C9.97672 8.16513 10 8.06438 10 7.9623C10 7.86021 9.97672 7.75947 9.93193 7.66773C9.88715 7.57599 9.82203 7.49568 9.74154 7.43289Z" fill="#F8F8F8"/>
</svg>
