<svg width="10" height="16" viewBox="0 0 10 16" fill="none" xmlns="http://www.w3.org/2000/svg">
<path d="M0.258464 8.49192L9.72899 15.8889C9.75374 15.9084 9.78348 15.9205 9.8148 15.9239C9.84611 15.9272 9.87774 15.9216 9.90604 15.9078C9.93434 15.894 9.95817 15.8725 9.97479 15.8457C9.99141 15.819 10.0001 15.7881 10 15.7566V14.1326C10 14.0297 9.95168 13.931 9.87185 13.8679L2.30887 7.96251L9.87185 2.05708C9.95378 1.99406 10 1.89532 10 1.79238L10 0.16844C10 0.0276845 9.83823 -0.0500469 9.72899 0.036087L0.258464 7.4331C0.17797 7.49589 0.112854 7.5762 0.0680666 7.66794C0.0232795 7.75968 0 7.86042 0 7.96251C0 8.06459 0.0232795 8.16534 0.0680666 8.25707C0.112854 8.34881 0.17797 8.42913 0.258464 8.49192Z" fill="#F8F8F8"/>
</svg>
