<svg width="150" height="150" viewBox="0 0 150 150" fill="none" xmlns="http://www.w3.org/2000/svg">
<path fill-rule="evenodd" clip-rule="evenodd" d="M140 150C145.523 150 150 145.523 150 140V75.7185L142.1 64.116L131.288 80.096C130.744 80.8667 129.996 81.4787 129.044 81.932C128.138 82.3853 127.14 82.612 126.052 82.612C123.922 82.612 122.176 81.8413 120.816 80.3L137.068 57.52L121.564 35.488C122.063 34.9893 122.743 34.5813 123.604 34.264C124.511 33.9467 125.44 33.788 126.392 33.788C127.707 33.788 128.931 34.0147 130.064 34.468C131.198 34.876 131.991 35.4427 132.444 36.168L141.556 50.04L139.72 52.692L140.4 53.168L150 38.8829V10C150 4.47715 145.523 0 140 0H10C4.47715 0 0 4.47715 0 10V34.8197C2.21984 34.1319 4.6622 33.788 7.32708 33.788C11.3164 33.788 14.8071 34.5587 17.7991 36.1C20.7911 37.596 23.1031 39.7267 24.7351 42.492C26.3671 45.2573 27.1831 48.4987 27.1831 52.216C27.1831 54.5733 26.6617 56.9987 25.6191 59.492C24.6217 61.9853 23.2164 64.2293 21.4031 66.224L8.48308 80.572C7.75775 81.3427 7.07775 81.864 6.44308 82.136C5.80841 82.4533 5.01508 82.612 4.06308 82.612C2.56159 82.612 1.20723 82.2166 0 81.4257V140C0 145.523 4.47715 150 10 150H140ZM0 77.6557L7.46308 69.76C8.95908 69.3973 10.2964 68.944 11.4751 68.4L11.1351 67.584C9.23108 68.4907 7.21375 68.944 5.08308 68.944C3.27627 68.944 1.58191 68.7665 0 68.4114V77.6557ZM0 60.6685C1.91192 62.2415 4.35428 63.028 7.32708 63.028C10.5911 63.028 13.2204 62.0307 15.2151 60.036C17.2551 58.0413 18.2751 55.4347 18.2751 52.216C18.2751 49.0427 17.2551 46.4813 15.2151 44.532C13.2204 42.5373 10.5911 41.54 7.32708 41.54C4.35428 41.54 1.91192 42.3265 0 43.8995V60.6685ZM150 53.5417L147.2 57.52L150 61.4441V53.5417ZM41.6113 80.98C44.4673 82.068 47.618 82.612 51.0633 82.612C55.0073 82.612 58.4073 81.8867 61.2633 80.436C64.1646 78.9853 66.386 76.9 67.9273 74.18C69.4686 71.46 70.2393 68.264 70.2393 64.592C70.2393 61.1013 69.5366 58.064 68.1313 55.48C66.7713 52.896 64.7993 50.9013 62.2153 49.496C59.6766 48.0907 56.6846 47.388 53.2393 47.388C50.882 47.388 48.4793 47.8187 46.0313 48.68C43.6286 49.5413 41.566 50.6973 39.8433 52.148L39.5033 51.74C40.2286 50.9693 41.158 50.1987 42.2913 49.428L43.5153 42.152H61.8753C66.0913 42.152 68.1993 39.568 68.1993 34.4H40.8633C39.6393 34.4 38.642 34.672 37.8713 35.216C37.146 35.76 36.6926 36.576 36.5113 37.664L33.7913 54.324C33.746 54.5053 33.7233 54.7547 33.7233 55.072C33.7233 56.2507 34.154 57.2253 35.0153 57.996C35.8766 58.7213 36.9193 59.084 38.1433 59.084C39.3673 59.084 40.546 58.676 41.6793 57.86C44.218 55.956 47.3006 55.004 50.9273 55.004C54.2366 55.004 56.8206 55.8427 58.6793 57.52C60.538 59.1973 61.4673 61.5547 61.4673 64.592C61.4673 67.8107 60.5606 70.304 58.7473 72.072C56.9793 73.7947 54.418 74.656 51.0633 74.656C47.8446 74.656 45.306 73.976 43.4473 72.616C41.5886 71.256 40.6593 69.3747 40.6593 66.972C40.6593 65.884 40.7273 64.9773 40.8633 64.252L39.4353 64.184C36.9873 64.184 35.1966 64.6373 34.0633 65.544C32.93 66.4507 32.3633 67.9013 32.3633 69.896C32.3633 72.2533 33.1793 74.4067 34.8113 76.356C36.4886 78.3053 38.7553 79.8467 41.6113 80.98ZM85.7985 80.572C88.7452 81.932 91.9865 82.612 95.5225 82.612C99.0585 82.612 102.277 81.932 105.179 80.572C108.125 79.1667 110.437 77.2853 112.115 74.928C113.837 72.5707 114.699 69.964 114.699 67.108V49.292C114.699 46.436 113.837 43.8293 112.115 41.472C110.437 39.1147 108.125 37.256 105.179 35.896C102.277 34.4907 99.0585 33.788 95.5225 33.788C91.9865 33.788 88.7452 34.468 85.7985 35.828C82.8972 37.188 80.6079 39.0693 78.9305 41.472C77.2532 43.8293 76.4146 46.436 76.4146 49.292V67.108C76.4146 69.964 77.2532 72.5933 78.9305 74.996C80.6079 77.3533 82.8972 79.212 85.7985 80.572ZM102.867 72.548C101.053 73.9533 98.6052 74.656 95.5225 74.656C92.4399 74.656 89.9919 73.9533 88.1786 72.548C86.3652 71.0973 85.4585 69.1933 85.4585 66.836V49.564C85.4585 47.2067 86.3652 45.3253 88.1786 43.92C89.9919 42.4693 92.4399 41.744 95.5225 41.744C98.6052 41.744 101.053 42.4693 102.867 43.92C104.68 45.3253 105.587 47.2067 105.587 49.564V66.836C105.587 69.1933 104.68 71.0973 102.867 72.548Z" fill="white"/>
</svg>
