<svg width="150" height="150" viewBox="0 0 150 150" fill="none" xmlns="http://www.w3.org/2000/svg">
<rect width="150" height="150" rx="10" fill="white"/>
<path d="M4.12076 4.12076C5.42522 2.81444 6.97442 1.77811 8.67974 1.07103C10.3851 0.363951 12.213 0 14.0591 0C15.9052 0 17.7332 0.363951 19.4386 1.07103C21.1439 1.77811 22.6931 2.81444 23.9975 4.12076L75.0021 55.1065L126.007 4.12076C127.312 2.81564 128.861 1.78035 130.566 1.07402C132.272 0.367691 134.099 0.00414889 135.945 0.00414885C137.791 0.00414882 139.618 0.367691 141.324 1.07402C143.029 1.78035 144.578 2.81564 145.883 4.12076C147.189 5.42589 148.224 6.9753 148.93 8.68053C149.636 10.3858 150 12.2134 150 14.0591C150 15.9049 149.636 17.7325 148.93 19.4378C148.224 21.143 147.189 22.6924 145.883 23.9975L94.8976 75.0021L145.883 126.007C148.519 128.642 150 132.217 150 135.945C150 139.673 148.519 143.248 145.883 145.883C143.248 148.519 139.673 150 135.945 150C132.217 150 128.642 148.519 126.007 145.883L75.0021 94.8976L23.9975 145.883C21.3617 148.519 17.7868 150 14.0591 150C10.3315 150 6.75659 148.519 4.12076 145.883C1.48494 143.248 0.00414885 139.673 0.00414885 135.945C0.00414885 132.217 1.48494 128.642 4.12076 126.007L55.1065 75.0021L4.12076 23.9975C2.81444 22.6931 1.77811 21.1439 1.07103 19.4386C0.363951 17.7332 0 15.9052 0 14.0591C0 12.213 0.363951 10.3851 1.07103 8.67974C1.77811 6.97442 2.81444 5.42522 4.12076 4.12076Z" fill="#E0E0E0" fill-opacity="0.46"/>
</svg>
