<svg width="30" height="30" viewBox="0 0 30 30" fill="none" xmlns="http://www.w3.org/2000/svg">
<path d="M27.8508 20.8992C27.9379 20.9863 28.0071 21.0897 28.0543 21.2035C28.1015 21.3173 28.1257 21.4393 28.1257 21.5625C28.1257 21.6857 28.1015 21.8077 28.0543 21.9215C28.0071 22.0353 27.9379 22.1387 27.8508 22.2258L25.0383 25.0383C24.8624 25.2142 24.6238 25.313 24.375 25.313C24.1262 25.313 23.8876 25.2142 23.7117 25.0383C23.5358 24.8624 23.437 24.6238 23.437 24.375C23.437 24.1262 23.5358 23.8876 23.7117 23.7117L24.9246 22.5H23.5477C22.2048 22.4989 20.8816 22.1778 19.6876 21.5634C18.4935 20.9489 17.4631 20.0588 16.6816 18.9668L11.7926 12.123C11.1847 11.2737 10.3833 10.5815 9.4546 10.1036C8.52593 9.62569 7.49676 9.37593 6.45234 9.375H3.75C3.50136 9.375 3.2629 9.27623 3.08709 9.10042C2.91127 8.9246 2.8125 8.68614 2.8125 8.4375C2.8125 8.18886 2.91127 7.95041 3.08709 7.77459C3.2629 7.59877 3.50136 7.5 3.75 7.5H6.45234C7.79518 7.50112 9.11843 7.82219 10.3125 8.43663C11.5065 9.05107 12.5369 9.94117 13.3184 11.0332L18.2074 17.877C18.8153 18.7263 19.6167 19.4185 20.5454 19.8964C21.4741 20.3743 22.5032 20.6241 23.5477 20.625H24.9246L23.7117 19.4133C23.5358 19.2374 23.437 18.9988 23.437 18.75C23.437 18.5012 23.5358 18.2626 23.7117 18.0867C23.8876 17.9108 24.1262 17.812 24.375 17.812C24.6238 17.812 24.8624 17.9108 25.0383 18.0867L27.8508 20.8992ZM16.7578 12.5391C16.858 12.6106 16.9713 12.6618 17.0912 12.6895C17.2112 12.7173 17.3354 12.7212 17.4569 12.7009C17.5783 12.6807 17.6946 12.6367 17.799 12.5716C17.9035 12.5064 17.9941 12.4213 18.0656 12.3211L18.2063 12.1254C18.814 11.2755 19.6155 10.5827 20.5444 10.1044C21.4733 9.62604 22.5028 9.37602 23.5477 9.375H24.9246L23.7117 10.5867C23.5358 10.7626 23.437 11.0012 23.437 11.25C23.437 11.4988 23.5358 11.7374 23.7117 11.9133C23.8876 12.0892 24.1262 12.188 24.375 12.188C24.6238 12.188 24.8624 12.0892 25.0383 11.9133L27.8508 9.10078C27.9379 9.01372 28.0071 8.91032 28.0543 8.79651C28.1015 8.6827 28.1257 8.5607 28.1257 8.4375C28.1257 8.3143 28.1015 8.19231 28.0543 8.0785C28.0071 7.96469 27.9379 7.86129 27.8508 7.77422L25.0383 4.96172C24.8624 4.78581 24.6238 4.68698 24.375 4.68698C24.1262 4.68698 23.8876 4.78581 23.7117 4.96172C23.5358 5.13763 23.437 5.37622 23.437 5.625C23.437 5.87378 23.5358 6.11237 23.7117 6.28828L24.9246 7.5H23.5477C22.2048 7.50112 20.8816 7.82219 19.6876 8.43663C18.4935 9.05107 17.4631 9.94117 16.6816 11.0332L16.541 11.2289C16.469 11.3291 16.4175 11.4425 16.3895 11.5626C16.3614 11.6828 16.3573 11.8073 16.3775 11.929C16.3976 12.0507 16.4416 12.1672 16.5068 12.2719C16.5721 12.3766 16.6574 12.4674 16.7578 12.5391ZM13.2422 17.4609C13.142 17.3894 13.0287 17.3382 12.9088 17.3105C12.7888 17.2827 12.6646 17.2788 12.5431 17.2991C12.4217 17.3193 12.3054 17.3633 12.201 17.4284C12.0965 17.4936 12.0059 17.5787 11.9344 17.6789L11.7938 17.8746C11.186 18.7245 10.3845 19.4173 9.45561 19.8957C8.5267 20.374 7.49717 20.624 6.45234 20.625H3.75C3.50136 20.625 3.2629 20.7238 3.08709 20.8996C2.91127 21.0754 2.8125 21.3139 2.8125 21.5625C2.8125 21.8111 2.91127 22.0496 3.08709 22.2254C3.2629 22.4012 3.50136 22.5 3.75 22.5H6.45234C7.79518 22.4989 9.11843 22.1778 10.3125 21.5634C11.5065 20.9489 12.5369 20.0588 13.3184 18.9668L13.459 18.7711C13.531 18.6709 13.5825 18.5575 13.6105 18.4374C13.6386 18.3172 13.6427 18.1927 13.6226 18.071C13.6024 17.9493 13.5584 17.8328 13.4932 17.7281C13.4279 17.6234 13.3426 17.5326 13.2422 17.4609Z" fill="white"/>
</svg>
