<svg width="25" height="24" viewBox="0 0 25 24" fill="none" xmlns="http://www.w3.org/2000/svg">
<path d="M19.2308 1.92308H5.76923C5.51421 1.92308 5.26964 1.82177 5.08932 1.64145C4.909 1.46113 4.80769 1.21655 4.80769 0.961538C4.80769 0.706523 4.909 0.461952 5.08932 0.281628C5.26964 0.101305 5.51421 0 5.76923 0H19.2308C19.4858 0 19.7304 0.101305 19.9107 0.281628C20.091 0.461952 20.1923 0.706523 20.1923 0.961538C20.1923 1.21655 20.091 1.46113 19.9107 1.64145C19.7304 1.82177 19.4858 1.92308 19.2308 1.92308ZM21.1538 4.80769H3.84615C3.59114 4.80769 3.34657 4.70639 3.16624 4.52606C2.98592 4.34574 2.88462 4.10117 2.88462 3.84615C2.88462 3.59114 2.98592 3.34657 3.16624 3.16624C3.34657 2.98592 3.59114 2.88462 3.84615 2.88462H21.1538C21.4089 2.88462 21.6534 2.98592 21.8338 3.16624C22.0141 3.34657 22.1154 3.59114 22.1154 3.84615C22.1154 4.10117 22.0141 4.34574 21.8338 4.52606C21.6534 4.70639 21.4089 4.80769 21.1538 4.80769ZM22.3035 23.0769H2.69651C1.9816 23.0761 1.29619 22.7918 0.790669 22.2863C0.285147 21.7807 0.000795324 21.0953 0 20.3804V8.46574C0.000795324 7.75083 0.285147 7.06542 0.790669 6.5599C1.29619 6.05438 1.9816 5.77003 2.69651 5.76923H22.3035C23.0184 5.77003 23.7038 6.05438 24.2093 6.5599C24.7149 7.06542 24.9992 7.75083 25 8.46574V20.3804C24.9992 21.0953 24.7149 21.7807 24.2093 22.2863C23.7038 22.7918 23.0184 23.0761 22.3035 23.0769Z" fill="#F8F8F8"/>
</svg>
