<svg width="22" height="22" viewBox="0 0 22 22" fill="none" xmlns="http://www.w3.org/2000/svg">
<path d="M11 22C9.47833 22 8.04833 21.7111 6.71 21.1332C5.37167 20.5553 4.2075 19.7718 3.2175 18.7825C2.2275 17.7925 1.44393 16.6283 0.8668 15.29C0.289667 13.9517 0.000733333 12.5217 0 11C0 9.47833 0.288933 8.04833 0.8668 6.71C1.44467 5.37167 2.22823 4.2075 3.2175 3.2175C4.2075 2.2275 5.37167 1.44393 6.71 0.8668C8.04833 0.289667 9.47833 0.000733333 11 0C12.5217 0 13.9517 0.288933 15.29 0.8668C16.6283 1.44467 17.7925 2.22823 18.7825 3.2175C19.7725 4.2075 20.5564 5.37167 21.1343 6.71C21.7122 8.04833 22.0007 9.47833 22 11C22 12.5217 21.7111 13.9517 21.1332 15.29C20.5553 16.6283 19.7718 17.7925 18.7825 18.7825C17.7925 19.7725 16.6283 20.5564 15.29 21.1343C13.9517 21.7122 12.5217 22.0007 11 22ZM11 19.8C12.0267 19.8 12.9939 19.6394 13.9018 19.3182C14.8097 18.997 15.6391 18.5434 16.39 17.9575L14.8225 16.39C14.2908 16.775 13.6998 17.0731 13.0493 17.2843C12.3988 17.4955 11.7157 17.6007 11 17.6C9.16667 17.6 7.60833 16.9583 6.325 15.675C5.04167 14.3917 4.4 12.8333 4.4 11C4.4 9.16667 5.04167 7.60833 6.325 6.325C7.60833 5.04167 9.16667 4.4 11 4.4C12.8333 4.4 14.3917 5.04167 15.675 6.325C16.9583 7.60833 17.6 9.16667 17.6 11C17.6 11.715 17.49 12.4025 17.27 13.0625C17.05 13.7225 16.7475 14.3183 16.3625 14.85L17.93 16.4175C18.5167 15.6658 18.975 14.8317 19.305 13.915C19.635 12.9983 19.8 12.0267 19.8 11C19.8 8.54333 18.9475 6.4625 17.2425 4.7575C15.5375 3.0525 13.4567 2.2 11 2.2C8.54333 2.2 6.4625 3.0525 4.7575 4.7575C3.0525 6.4625 2.2 8.54333 2.2 11C2.2 13.4567 3.0525 15.5375 4.7575 17.2425C6.4625 18.9475 8.54333 19.8 11 19.8ZM11 15.4C11.4033 15.4 11.7931 15.3494 12.1693 15.2482C12.5455 15.147 12.8982 14.9959 13.2275 14.795L11.55 13.1175C11.4583 13.1542 11.3667 13.1773 11.275 13.1868C11.1833 13.1963 11.0917 13.2007 11 13.2C10.395 13.2 9.8769 12.9844 9.4457 12.5532C9.0145 12.122 8.79927 11.6043 8.8 11C8.8 10.395 9.0156 9.8769 9.4468 9.4457C9.878 9.0145 10.3957 8.79927 11 8.8C11.605 8.8 12.1231 9.0156 12.5543 9.4468C12.9855 9.878 13.2007 10.3957 13.2 11C13.2 11.11 13.1952 11.2156 13.1857 11.3168C13.1762 11.418 13.1534 11.5141 13.1175 11.605L14.7675 13.255C14.9692 12.925 15.125 12.5719 15.235 12.1957C15.345 11.8195 15.4 11.4209 15.4 11C15.4 9.79 14.9692 8.75417 14.1075 7.8925C13.2458 7.03083 12.21 6.6 11 6.6C9.79 6.6 8.75417 7.03083 7.8925 7.8925C7.03083 8.75417 6.6 9.79 6.6 11C6.6 12.21 7.03083 13.2458 7.8925 14.1075C8.75417 14.9692 9.79 15.4 11 15.4Z" fill="#F8F8F8"/>
</svg>
