<svg width="26" height="26" viewBox="0 0 26 26" fill="none" xmlns="http://www.w3.org/2000/svg">
<path d="M14.4014 2.3726e-06C14.7836 2.3726e-06 15.1255 0.237894 15.2541 0.594082L16.1719 3.13809C16.5008 3.21999 16.7829 3.30189 17.0221 3.38769C17.2834 3.48128 17.6201 3.62298 18.0361 3.81667L20.1732 2.68571C20.3476 2.59329 20.5473 2.55993 20.7423 2.59064C20.9373 2.62134 21.1171 2.71445 21.2547 2.856L23.1345 4.79944C23.3841 5.05813 23.4543 5.43642 23.3139 5.7666L22.3116 8.11562C22.478 8.42111 22.6106 8.6824 22.712 8.9008C22.8212 9.13869 22.9564 9.46628 23.1176 9.88876L25.4536 10.8897C25.8046 11.0392 26.0217 11.3902 25.9983 11.7659L25.8267 14.4633C25.815 14.6385 25.752 14.8065 25.6457 14.9463C25.5394 15.0861 25.3944 15.1916 25.2287 15.2498L23.0162 16.0363C22.9525 16.3417 22.8862 16.603 22.816 16.824C22.7028 17.1653 22.5735 17.5011 22.4286 17.8302L23.5401 20.2871C23.6185 20.4597 23.6396 20.6529 23.6003 20.8384C23.561 21.0239 23.4634 21.192 23.3217 21.318L21.2079 23.2055C21.0687 23.3293 20.895 23.4076 20.7101 23.4299C20.5252 23.4522 20.3378 23.4174 20.1732 23.3303L17.9945 22.1759C17.6536 22.3564 17.3019 22.5158 16.9415 22.653L15.9899 23.0092L15.145 25.3491C15.0823 25.5205 14.9694 25.6689 14.8209 25.7749C14.6724 25.881 14.4954 25.9396 14.313 25.9432L11.8431 25.9991C11.6558 26.004 11.4717 25.9508 11.3159 25.8467C11.1602 25.7427 11.0405 25.5929 10.9734 25.418L9.97763 22.783C9.63789 22.6669 9.3015 22.5412 8.96887 22.406C8.69681 22.2883 8.42886 22.1612 8.1655 22.0251L5.69558 23.0807C5.53284 23.1501 5.35342 23.1708 5.17916 23.1401C5.00491 23.1094 4.84334 23.0287 4.71411 22.9078L2.88638 21.1932C2.7503 21.0661 2.65763 20.8994 2.62147 20.7167C2.58531 20.5341 2.60749 20.3447 2.68488 20.1753L3.74695 17.8614C3.6057 17.5873 3.47475 17.3081 3.35436 17.0242C3.21384 16.6768 3.08378 16.3252 2.96437 15.97L0.637456 15.2615C0.448313 15.2043 0.283341 15.0863 0.168159 14.9257C0.0529766 14.7652 -0.00596848 14.5711 0.000477693 14.3736L0.0914745 11.8764C0.0979517 11.7135 0.14885 11.5554 0.238666 11.4193C0.328481 11.2832 0.453796 11.1742 0.601057 11.1042L3.04237 9.93166C3.15547 9.51697 3.25426 9.19459 3.34136 8.95929C3.464 8.64502 3.60019 8.33621 3.74955 8.03373L2.69138 5.7978C2.61108 5.62801 2.58669 5.43712 2.62173 5.25258C2.65677 5.06805 2.74943 4.89938 2.88638 4.77084L4.71151 3.0471C4.83946 2.92643 4.99955 2.8453 5.17251 2.81347C5.34548 2.78164 5.52396 2.80048 5.68648 2.8677L8.15379 3.88687C8.42679 3.70487 8.67378 3.55798 8.89737 3.43968C9.16386 3.29799 9.52005 3.14979 9.96853 2.9899L10.8265 0.596682C10.8899 0.421537 11.0059 0.270239 11.1585 0.163447C11.3111 0.0566555 11.493 -0.000424111 11.6793 2.3726e-06H14.4014ZM13.0312 9.12439C10.8642 9.12439 9.10796 10.8598 9.10796 13.0022C9.10796 15.1445 10.8642 16.8812 13.0312 16.8812C15.197 16.8812 16.9532 15.1445 16.9532 13.0022C16.9532 10.8598 15.1983 9.12439 13.0312 9.12439Z" fill="#F8F8F8"/>
</svg>
