<svg width="100" height="167" viewBox="0 0 100 167" fill="none" xmlns="http://www.w3.org/2000/svg">
<g filter="url(#filter0_d_238_53)">
<path d="M87.5973 21.6818C85.4441 21.6818 83.6378 20.988 82.1787 19.6004C80.7195 18.2127 79.9925 16.4975 79.9976 14.4546V7.22729C79.9976 5.17957 80.7271 3.46189 82.1863 2.07425C83.6454 0.686615 85.4491 -0.00479317 87.5973 2.50079e-05C89.7506 2.50079e-05 91.5568 0.693843 93.0159 2.08148C94.4751 3.46911 95.2021 5.18439 95.1971 7.22729V14.4546C95.1971 16.5023 94.4675 18.22 93.0083 19.6076C91.5492 20.9952 89.7455 21.6867 87.5973 21.6818ZM87.5973 159C85.4441 159 83.6378 158.306 82.1787 156.919C80.7195 155.531 79.9925 153.816 79.9976 151.773V144.545C79.9976 142.498 80.7271 140.78 82.1863 139.392C83.6454 138.005 85.4491 137.313 87.5973 137.318C89.7506 137.318 91.5568 138.012 93.0159 139.4C94.4751 140.787 95.2021 142.503 95.1971 144.545V151.773C95.1971 153.82 94.4675 155.538 93.0083 156.926C91.5492 158.313 89.7455 159.005 87.5973 159ZM11.5998 86.7273C9.44652 86.7273 7.64031 86.0334 6.18116 84.6458C4.722 83.2582 3.99496 81.5429 4.00003 79.5C4.00003 77.4523 4.7296 75.7346 6.18876 74.347C7.64791 72.9593 9.45158 72.2679 11.5998 72.2727H19.1995C21.3528 72.2727 23.159 72.9666 24.6182 74.3542C26.0773 75.7418 26.8044 77.4571 26.7993 79.5C26.7993 81.5477 26.0697 83.2654 24.6106 84.653C23.1514 86.0407 21.3477 86.7321 19.1995 86.7273H11.5998ZM28.5092 135.692C26.9893 134.247 26.2293 132.5 26.2293 130.452C26.2293 128.405 26.9893 126.658 28.5092 125.212L31.3591 122.683C32.8791 121.358 34.6524 120.695 36.679 120.695C38.7056 120.695 40.4788 121.418 41.9988 122.864C43.3921 124.189 44.1217 125.875 44.1875 127.923C44.2534 129.97 43.5238 131.657 41.9988 132.982L39.3389 135.692C37.9456 137.137 36.1723 137.86 34.0191 137.86C31.8658 137.86 30.0292 137.137 28.5092 135.692ZM31.3591 36.1364L28.5092 33.6068C26.9893 32.2818 26.2293 30.5955 26.2293 28.5477C26.2293 26.5 26.9893 24.7534 28.5092 23.308C30.0292 21.8625 31.8658 21.1398 34.0191 21.1398C36.1723 21.1398 38.0089 21.8625 39.5289 23.308L42.1888 26.0182C43.5821 27.4637 44.2787 29.15 44.2787 31.0773C44.2787 33.0046 43.5187 34.6909 41.9988 36.1364C40.6055 37.4614 38.8652 38.1239 36.7778 38.1239C34.6904 38.1239 32.8842 37.4614 31.3591 36.1364Z" fill="#FFC700"/>
</g>
<path d="M97 30C89.7773 30 82.6253 31.2803 75.9524 33.768C69.2795 36.2556 63.2163 39.9017 58.1091 44.4982C53.0019 49.0947 48.9506 54.5516 46.1866 60.5572C43.4226 66.5628 42 72.9996 42 79.5C42 86.0004 43.4226 92.4372 46.1866 98.4428C48.9506 104.448 53.0019 109.905 58.1091 114.502C63.2164 119.098 69.2795 122.744 75.9524 125.232C82.6253 127.72 89.7773 129 97 129L97 79.5V30Z" fill="#FFC700"/>
<defs>
<filter id="filter0_d_238_53" x="0" y="0" width="99.1973" height="167" filterUnits="userSpaceOnUse" color-interpolation-filters="sRGB">
<feFlood flood-opacity="0" result="BackgroundImageFix"/>
<feColorMatrix in="SourceAlpha" type="matrix" values="0 0 0 0 0 0 0 0 0 0 0 0 0 0 0 0 0 0 127 0" result="hardAlpha"/>
<feOffset dy="4"/>
<feGaussianBlur stdDeviation="2"/>
<feComposite in2="hardAlpha" operator="out"/>
<feColorMatrix type="matrix" values="0 0 0 0 0 0 0 0 0 0 0 0 0 0 0 0 0 0 0.25 0"/>
<feBlend mode="normal" in2="BackgroundImageFix" result="effect1_dropShadow_238_53"/>
<feBlend mode="normal" in="SourceGraphic" in2="effect1_dropShadow_238_53" result="shape"/>
</filter>
</defs>
</svg>
