<svg width="70" height="70" viewBox="0 0 70 70" fill="none" xmlns="http://www.w3.org/2000/svg">
<path d="M34.9994 55.4167C35.7729 55.4167 36.5148 55.724 37.0618 56.2709C37.6087 56.8179 37.916 57.5598 37.916 58.3333V61.25C37.916 62.0235 37.6087 62.7654 37.0618 63.3124C36.5148 63.8594 35.7729 64.1667 34.9994 64.1667C34.2258 64.1667 33.484 63.8594 32.937 63.3124C32.39 62.7654 32.0827 62.0235 32.0827 61.25V58.3333C32.0827 57.5598 32.39 56.8179 32.937 56.2709C33.484 55.724 34.2258 55.4167 34.9994 55.4167ZM53.561 49.4375L55.6231 51.4996C56.1544 52.0497 56.4484 52.7864 56.4418 53.5512C56.4351 54.3159 56.1284 55.0474 55.5876 55.5882C55.0468 56.129 54.3153 56.4357 53.5505 56.4424C52.7858 56.449 52.049 56.155 51.499 55.6237L49.4369 53.5617C48.9056 53.0116 48.6116 52.2748 48.6182 51.5101C48.6249 50.7453 48.9316 50.0138 49.4724 49.473C50.0132 48.9323 50.7447 48.6255 51.5095 48.6189C52.2742 48.6122 53.011 48.9062 53.561 49.4375ZM16.4377 49.4375C16.9626 48.9144 17.6669 48.6107 18.4076 48.5881C19.1483 48.5655 19.8698 48.8256 20.4256 49.3157C20.9814 49.8058 21.3298 50.4891 21.4001 51.2268C21.4704 51.9645 21.2572 52.7013 20.804 53.2875L20.5619 53.5617L18.4998 55.6237C17.9749 56.1468 17.2706 56.4505 16.5299 56.4732C15.7892 56.4958 15.0677 56.2356 14.5119 55.7455C13.9561 55.2554 13.6076 54.5721 13.5374 53.8344C13.4671 53.0968 13.6803 52.36 14.1335 51.7737L14.3756 51.4996L16.4377 49.4375ZM34.9994 17.5C39.6407 17.5 44.0919 19.3437 47.3737 22.6256C50.6556 25.9075 52.4994 30.3587 52.4994 35C52.4994 39.6413 50.6556 44.0925 47.3737 47.3744C44.0919 50.6563 39.6407 52.5 34.9994 52.5C30.3581 52.5 25.9069 50.6563 22.625 47.3744C19.3431 44.0925 17.4994 39.6413 17.4994 35C17.4994 30.3587 19.3431 25.9075 22.625 22.6256C25.9069 19.3437 30.3581 17.5 34.9994 17.5ZM11.666 32.0833C12.4094 32.0842 13.1245 32.3688 13.665 32.8791C14.2056 33.3895 14.5309 34.0869 14.5745 34.8291C14.618 35.5712 14.3766 36.3019 13.8994 36.872C13.4223 37.4421 12.7455 37.8084 12.0073 37.8962L11.666 37.9167H8.74937C8.00597 37.9158 7.29095 37.6312 6.75038 37.1209C6.20982 36.6105 5.88452 35.9131 5.84095 35.1709C5.79739 34.4288 6.03884 33.6981 6.51598 33.128C6.99312 32.5579 7.66993 32.1915 8.40812 32.1037L8.74937 32.0833H11.666ZM61.2494 32.0833C62.0229 32.0833 62.7648 32.3906 63.3118 32.9376C63.8588 33.4846 64.166 34.2264 64.166 35C64.166 35.7735 63.8588 36.5154 63.3118 37.0624C62.7648 37.6094 62.0229 37.9167 61.2494 37.9167H58.3327C57.5592 37.9167 56.8173 37.6094 56.2703 37.0624C55.7233 36.5154 55.416 35.7735 55.416 35C55.416 34.2264 55.7233 33.4846 56.2703 32.9376C56.8173 32.3906 57.5592 32.0833 58.3327 32.0833H61.2494ZM14.3756 14.3762C14.8779 13.8741 15.5461 13.5724 16.2549 13.5278C16.9637 13.4832 17.6644 13.6988 18.2256 14.1342L18.4998 14.3762L20.5619 16.4383C21.085 16.9632 21.3887 17.6675 21.4113 18.4082C21.4339 19.1489 21.1737 19.8704 20.6836 20.4262C20.1935 20.982 19.5103 21.3305 18.7726 21.4007C18.0349 21.471 17.2981 21.2579 16.7119 20.8046L16.4377 20.5625L14.3756 18.5004C13.8288 17.9535 13.5217 17.2117 13.5217 16.4383C13.5217 15.6649 13.8288 14.9232 14.3756 14.3762ZM55.6231 14.3762C56.1699 14.9232 56.4771 15.6649 56.4771 16.4383C56.4771 17.2117 56.1699 17.9535 55.6231 18.5004L53.561 20.5625C53.292 20.8411 52.9701 21.0633 52.6143 21.2161C52.2585 21.369 51.8757 21.4494 51.4885 21.4528C51.1012 21.4562 50.7171 21.3824 50.3587 21.2357C50.0002 21.0891 49.6746 20.8725 49.4007 20.5986C49.1269 20.3248 48.9103 19.9991 48.7636 19.6407C48.617 19.2822 48.5432 18.8982 48.5466 18.5109C48.5499 18.1236 48.6304 17.7409 48.7832 17.3851C48.9361 17.0292 49.1583 16.7074 49.4369 16.4383L51.499 14.3762C52.0459 13.8295 52.7876 13.5223 53.561 13.5223C54.3344 13.5223 55.0762 13.8295 55.6231 14.3762ZM34.9994 5.83333C35.7729 5.83333 36.5148 6.14062 37.0618 6.6876C37.6087 7.23458 37.916 7.97645 37.916 8.75V11.6667C37.916 12.4402 37.6087 13.1821 37.0618 13.7291C36.5148 14.276 35.7729 14.5833 34.9994 14.5833C34.2258 14.5833 33.484 14.276 32.937 13.7291C32.39 13.1821 32.0827 12.4402 32.0827 11.6667V8.75C32.0827 7.97645 32.39 7.23458 32.937 6.6876C33.484 6.14062 34.2258 5.83333 34.9994 5.83333Z" fill="#FFC700"/>
</svg>
