<svg width="30" height="27" viewBox="0 0 30 27" fill="none" xmlns="http://www.w3.org/2000/svg">
<path d="M23.4375 1.875C22.1943 1.875 21.002 2.36886 20.1229 3.24794C19.2439 4.12702 18.75 5.3193 18.75 6.5625C18.75 6.81114 18.6512 7.0496 18.4754 7.22541C18.2996 7.40123 18.0611 7.5 17.8125 7.5C17.5639 7.5 17.3254 7.40123 17.1496 7.22541C16.9738 7.0496 16.875 6.81114 16.875 6.5625C16.875 5.26456 17.2599 3.99577 17.981 2.91657C18.7021 1.83738 19.727 0.996243 20.9261 0.499543C22.1253 0.00284342 23.4448 -0.127116 24.7178 0.1261C25.9908 0.379315 27.1601 1.00433 28.0779 1.92211C28.9957 2.8399 29.6207 4.00922 29.8739 5.28222C30.1271 6.55522 29.9972 7.87472 29.5005 9.07386C29.0038 10.273 28.1626 11.2979 27.0834 12.019C26.0042 12.7401 24.7354 13.125 23.4375 13.125H0.9375C0.688859 13.125 0.450403 13.0262 0.274587 12.8504C0.098772 12.6746 0 12.4361 0 12.1875C0 11.9389 0.098772 11.7004 0.274587 11.5246C0.450403 11.3488 0.688859 11.25 0.9375 11.25H23.4375C24.6807 11.25 25.873 10.7561 26.7521 9.87706C27.6311 8.99799 28.125 7.8057 28.125 6.5625C28.125 5.3193 27.6311 4.12702 26.7521 3.24794C25.873 2.36886 24.6807 1.875 23.4375 1.875ZM10.3125 3.75C9.81522 3.75 9.3383 3.94755 8.98667 4.29918C8.63504 4.65081 8.4375 5.12772 8.4375 5.625C8.4375 5.87364 8.33873 6.1121 8.16291 6.28791C7.9871 6.46373 7.74864 6.5625 7.5 6.5625C7.25136 6.5625 7.0129 6.46373 6.83709 6.28791C6.66127 6.1121 6.5625 5.87364 6.5625 5.625C6.5625 4.88332 6.78243 4.1583 7.19449 3.54161C7.60654 2.92493 8.19221 2.44428 8.87744 2.16045C9.56266 1.87663 10.3167 1.80236 11.0441 1.94706C11.7715 2.09175 12.4397 2.44891 12.9641 2.97335C13.4886 3.4978 13.8457 4.16599 13.9904 4.89341C14.1351 5.62084 14.0609 6.37484 13.777 7.06007C13.4932 7.74529 13.0126 8.33096 12.3959 8.74301C11.7792 9.15507 11.0542 9.375 10.3125 9.375H0.9375C0.688859 9.375 0.450403 9.27623 0.274587 9.10041C0.098772 8.9246 0 8.68614 0 8.4375C0 8.18886 0.098772 7.95041 0.274587 7.77459C0.450403 7.59877 0.688859 7.5 0.9375 7.5H10.3125C10.8098 7.5 11.2867 7.30246 11.6383 6.95083C11.99 6.5992 12.1875 6.12228 12.1875 5.625C12.1875 5.12772 11.99 4.65081 11.6383 4.29918C11.2867 3.94755 10.8098 3.75 10.3125 3.75ZM0 15.9375C0 15.6889 0.098772 15.4504 0.274587 15.2746C0.450403 15.0988 0.688859 15 0.9375 15H19.7662C20.8788 15 21.9663 15.3299 22.8913 15.948C23.8164 16.5661 24.5373 17.4446 24.9631 18.4724C25.3888 19.5002 25.5002 20.6312 25.2832 21.7224C25.0661 22.8135 24.5304 23.8158 23.7437 24.6025C22.9571 25.3891 21.9548 25.9249 20.8636 26.1419C19.7725 26.359 18.6415 26.2476 17.6137 25.8218C16.5858 25.3961 15.7073 24.6751 15.0892 23.7501C14.4711 22.8251 14.1412 21.7375 14.1412 20.625C14.1412 20.3764 14.24 20.1379 14.4158 19.9621C14.5917 19.7863 14.8301 19.6875 15.0787 19.6875C15.3274 19.6875 15.5658 19.7863 15.7417 19.9621C15.9175 20.1379 16.0162 20.3764 16.0162 20.625C16.0162 21.3667 16.2362 22.0917 16.6482 22.7084C17.0603 23.3251 17.646 23.8057 18.3312 24.0896C19.0164 24.3734 19.7704 24.4476 20.4978 24.3029C21.2253 24.1583 21.8935 23.8011 22.4179 23.2767C22.9423 22.7522 23.2995 22.084 23.4442 21.3566C23.5889 20.6292 23.5146 19.8752 23.2308 19.1899C22.947 18.5047 22.4663 17.919 21.8496 17.507C21.233 17.0949 20.5079 16.875 19.7662 16.875H0.9375C0.688859 16.875 0.450403 16.7762 0.274587 16.6004C0.098772 16.4246 0 16.1861 0 15.9375Z" fill="#F8F8F8"/>
</svg>
